<svg width="512" height="512" version="1.1" xmlns="http://www.w3.org/2000/svg" desc="Created with imagetracer.js version 1.2.6" ><path fill="rgb(85,171,214)" stroke="rgb(85,171,214)" stroke-width="1" opacity="1" d="M 245 45 L 247 45.5 L 246 46.5 L 246 217.5 L 246.5 219 L 245 217.5 L 245 45 Z " /><path fill="rgb(85,171,214)" stroke="rgb(85,171,214)" stroke-width="1" opacity="1" d="M 449.5 163 L 450 335.5 L 449 335.5 L 449.5 163 Z " /><path fill="rgb(49,49,49)" stroke="rgb(49,49,49)" stroke-width="1" opacity="1" d="M 249.5 12 L 251 12.5 L 246 15.5 L 246.5 17 Q 243 15 247.5 13 L 249.5 12 Z " /><path fill="rgb(49,49,49)" stroke="rgb(49,49,49)" stroke-width="1" opacity="1" d="M 259.5 13 L 260.5 15 L 259.5 13 Z " /><path fill="rgb(49,49,49)" stroke="rgb(49,49,49)" stroke-width="1" opacity="1" d="M 264.5 16 L 268 18.5 L 266.5 18 L 264.5 16 Z " /><path fill="rgb(49,49,49)" stroke="rgb(49,49,49)" stroke-width="1" opacity="1" d="M 252.5 19 L 253.5 21 L 252.5 19 Z " /><path fill="rgb(49,49,49)" stroke="rgb(49,49,49)" stroke-width="1" opacity="1" d="M 236.5 20 L 448.5 142 L 460 150.5 L 463 159.5 L 463 355.5 L 459.5 360 L 455.5 359 L 308.5 274 L 239.5 234 L 234 229.5 L 233 227.5 L 233 22.5 L 236.5 20 Z M 240 34 L 237 37 L 237 222 L 246 228 L 453 347 Q 457 348 458 345 L 458 160 L 457 157 L 246 35 L 240 34 Z " /><path fill="rgb(49,49,49)" stroke="rgb(49,49,49)" stroke-width="1" opacity="1" d="M 271.5 20 L 272.5 22 L 271.5 20 Z " /><path fill="rgb(49,49,49)" stroke="rgb(49,49,49)" stroke-width="1" opacity="1" d="M 259.5 23 L 260.5 25 L 259.5 23 Z " /><path fill="rgb(49,49,49)" stroke="rgb(49,49,49)" stroke-width="1" opacity="1" d="M 278.5 24 L 279.5 26 L 278.5 24 Z " /><path fill="rgb(49,49,49)" stroke="rgb(49,49,49)" stroke-width="1" opacity="1" d="M 266.5 27 L 267.5 29 L 266.5 27 Z " /><path fill="rgb(49,49,49)" stroke="rgb(49,49,49)" stroke-width="1" opacity="1" d="M 285.5 28 L 286.5 30 L 285.5 28 Z " /><path fill="rgb(49,49,49)" stroke="rgb(49,49,49)" stroke-width="1" opacity="1" d="M 271.5 30 L 272.5 32 L 271.5 30 Z " /><path fill="rgb(49,49,49)" stroke="rgb(49,49,49)" stroke-width="1" opacity="1" d="M 290.5 31 L 294 33.5 L 292.5 33 L 290.5 31 Z " /><path fill="rgb(49,49,49)" stroke="rgb(49,49,49)" stroke-width="1" opacity="1" d="M 278.5 34 L 279.5 36 L 278.5 34 Z " /><path fill="rgb(49,49,49)" stroke="rgb(49,49,49)" stroke-width="1" opacity="1" d="M 297.5 35 L 298.5 37 L 297.5 35 Z " /><path fill="rgb(49,49,49)" stroke="rgb(49,49,49)" stroke-width="1" opacity="1" d="M 285.5 38 L 286.5 40 L 285.5 38 Z " /><path fill="rgb(49,49,49)" stroke="rgb(49,49,49)" stroke-width="1" opacity="1" d="M 304.5 39 L 305.5 41 L 304.5 39 Z " /><path fill="rgb(49,49,49)" stroke="rgb(49,49,49)" stroke-width="1" opacity="1" d="M 290.5 41 L 291.5 43 L 290.5 41 Z " /><path fill="rgb(49,49,49)" stroke="rgb(49,49,49)" stroke-width="1" opacity="1" d="M 309.5 42 L 313 44.5 L 311.5 44 L 309.5 42 Z " /><path fill="rgb(49,49,49)" stroke="rgb(49,49,49)" stroke-width="1" opacity="1" d="M 297.5 45 L 298.5 47 L 297.5 45 Z " /><path fill="rgb(49,49,49)" stroke="rgb(49,49,49)" stroke-width="1" opacity="1" d="M 316.5 46 L 320 48.5 L 318.5 48 L 316.5 46 Z " /><path fill="rgb(49,49,49)" stroke="rgb(49,49,49)" stroke-width="1" opacity="1" d="M 304.5 49 L 305.5 51 L 304.5 49 Z " /><path fill="rgb(49,49,49)" stroke="rgb(49,49,49)" stroke-width="1" opacity="1" d="M 323.5 50 L 324.5 52 L 323.5 50 Z " /><path fill="rgb(49,49,49)" stroke="rgb(49,49,49)" stroke-width="1" opacity="1" d="M 309.5 52 L 310.5 54 L 309.5 52 Z " /><path fill="rgb(49,49,49)" stroke="rgb(49,49,49)" stroke-width="1" opacity="1" d="M 330.5 54 L 331.5 56 L 330.5 54 Z " /><path fill="rgb(49,49,49)" stroke="rgb(49,49,49)" stroke-width="1" opacity="1" d="M 316.5 56 L 317.5 58 L 316.5 56 Z " /><path fill="rgb(49,49,49)" stroke="rgb(49,49,49)" stroke-width="1" opacity="1" d="M 335.5 57 L 339 59.5 L 337.5 59 L 335.5 57 Z " /><path fill="rgb(49,49,49)" stroke="rgb(49,49,49)" stroke-width="1" opacity="1" d="M 323.5 60 L 324.5 62 L 323.5 60 Z " /><path fill="rgb(49,49,49)" stroke="rgb(49,49,49)" stroke-width="1" opacity="1" d="M 342.5 61 L 346 63.5 L 344.5 63 L 342.5 61 Z " /><path fill="rgb(49,49,49)" stroke="rgb(49,49,49)" stroke-width="1" opacity="1" d="M 328.5 63 L 329.5 65 L 328.5 63 Z " /><path fill="rgb(49,49,49)" stroke="rgb(49,49,49)" stroke-width="1" opacity="1" d="M 349.5 65 L 350.5 67 L 349.5 65 Z " /><path fill="rgb(49,49,49)" stroke="rgb(49,49,49)" stroke-width="1" opacity="1" d="M 335.5 67 L 336.5 69 L 335.5 67 Z " /><path fill="rgb(49,49,49)" stroke="rgb(49,49,49)" stroke-width="1" opacity="1" d="M 356.5 69 L 357.5 71 L 356.5 69 Z " /><path fill="rgb(49,49,49)" stroke="rgb(49,49,49)" stroke-width="1" opacity="1" d="M 342.5 71 L 343.5 73 L 342.5 71 Z " /><path fill="rgb(49,49,49)" stroke="rgb(49,49,49)" stroke-width="1" opacity="1" d="M 361.5 72 L 365 74.5 L 363.5 74 L 361.5 72 Z " /><path fill="rgb(49,49,49)" stroke="rgb(49,49,49)" stroke-width="1" opacity="1" d="M 347.5 74 L 348.5 76 L 347.5 74 Z " /><path fill="rgb(49,49,49)" stroke="rgb(49,49,49)" stroke-width="1" opacity="1" d="M 368.5 76 L 372 78.5 L 370.5 78 L 368.5 76 Z " /><path fill="rgb(49,49,49)" stroke="rgb(49,49,49)" stroke-width="1" opacity="1" d="M 354.5 78 L 355.5 80 L 354.5 78 Z " /><path fill="rgb(49,49,49)" stroke="rgb(49,49,49)" stroke-width="1" opacity="1" d="M 375.5 80 L 376.5 82 L 375.5 80 Z " /><path fill="rgb(49,49,49)" stroke="rgb(49,49,49)" stroke-width="1" opacity="1" d="M 361.5 82 L 362.5 84 L 361.5 82 Z " /><path fill="rgb(49,49,49)" stroke="rgb(49,49,49)" stroke-width="1" opacity="1" d="M 382.5 84 L 383.5 86 L 382.5 84 Z " /><path fill="rgb(49,49,49)" stroke="rgb(49,49,49)" stroke-width="1" opacity="1" d="M 368.5 86 L 369.5 88 L 368.5 86 Z " /><path fill="rgb(49,49,49)" stroke="rgb(49,49,49)" stroke-width="1" opacity="1" d="M 387.5 87 L 391 89.5 L 389.5 89 L 387.5 87 Z " /><path fill="rgb(49,49,49)" stroke="rgb(49,49,49)" stroke-width="1" opacity="1" d="M 373.5 89 L 374.5 91 L 373.5 89 Z " /><path fill="rgb(49,49,49)" stroke="rgb(49,49,49)" stroke-width="1" opacity="1" d="M 394.5 91 L 395.5 93 L 394.5 91 Z " /><path fill="rgb(49,49,49)" stroke="rgb(49,49,49)" stroke-width="1" opacity="1" d="M 380.5 93 L 381.5 95 L 380.5 93 Z " /><path fill="rgb(49,49,49)" stroke="rgb(49,49,49)" stroke-width="1" opacity="1" d="M 401.5 95 L 402.5 97 L 401.5 95 Z " /><path fill="rgb(49,49,49)" stroke="rgb(49,49,49)" stroke-width="1" opacity="1" d="M 387.5 97 L 388.5 99 L 387.5 97 Z " /><path fill="rgb(49,49,49)" stroke="rgb(49,49,49)" stroke-width="1" opacity="1" d="M 406.5 98 L 410 100.5 L 408.5 100 L 406.5 98 Z " /><path fill="rgb(49,49,49)" stroke="rgb(49,49,49)" stroke-width="1" opacity="1" d="M 392.5 100 L 393.5 102 L 392.5 100 Z " /><path fill="rgb(49,49,49)" stroke="rgb(49,49,49)" stroke-width="1" opacity="1" d="M 413.5 102 L 417 104.5 L 415.5 104 L 413.5 102 Z " /><path fill="rgb(49,49,49)" stroke="rgb(49,49,49)" stroke-width="1" opacity="1" d="M 399.5 104 L 400.5 106 L 399.5 104 Z " /><path fill="rgb(49,49,49)" stroke="rgb(49,49,49)" stroke-width="1" opacity="1" d="M 420.5 106 L 421.5 108 L 420.5 106 Z " /><path fill="rgb(49,49,49)" stroke="rgb(49,49,49)" stroke-width="1" opacity="1" d="M 406.5 108 L 407.5 110 L 406.5 108 Z " /><path fill="rgb(49,49,49)" stroke="rgb(49,49,49)" stroke-width="1" opacity="1" d="M 427.5 110 L 428.5 112 L 427.5 110 Z " /><path fill="rgb(49,49,49)" stroke="rgb(49,49,49)" stroke-width="1" opacity="1" d="M 411.5 111 L 412.5 113 L 411.5 111 Z " /><path fill="rgb(49,49,49)" stroke="rgb(49,49,49)" stroke-width="1" opacity="1" d="M 432.5 113 L 436 115.5 L 434.5 115 L 432.5 113 Z " /><path fill="rgb(49,49,49)" stroke="rgb(49,49,49)" stroke-width="1" opacity="1" d="M 418.5 115 L 419.5 117 L 418.5 115 Z " /><path fill="rgb(49,49,49)" stroke="rgb(49,49,49)" stroke-width="1" opacity="1" d="M 439.5 117 L 443 119.5 L 441.5 119 L 439.5 117 Z " /><path fill="rgb(49,49,49)" stroke="rgb(49,49,49)" stroke-width="1" opacity="1" d="M 425.5 119 L 426.5 121 L 425.5 119 Z " /><path fill="rgb(49,49,49)" stroke="rgb(49,49,49)" stroke-width="1" opacity="1" d="M 446.5 121 L 447.5 123 L 446.5 121 Z " /><path fill="rgb(49,49,49)" stroke="rgb(49,49,49)" stroke-width="1" opacity="1" d="M 430.5 122 L 431.5 124 L 430.5 122 Z " /><path fill="rgb(49,49,49)" stroke="rgb(49,49,49)" stroke-width="1" opacity="1" d="M 453.5 125 L 454.5 127 L 453.5 125 Z " /><path fill="rgb(49,49,49)" stroke="rgb(49,49,49)" stroke-width="1" opacity="1" d="M 437.5 126 L 438.5 128 L 437.5 126 Z " /><path fill="rgb(49,49,49)" stroke="rgb(49,49,49)" stroke-width="1" opacity="1" d="M 458.5 128 L 462 130.5 L 460.5 130 L 458.5 128 Z " /><path fill="rgb(49,49,49)" stroke="rgb(49,49,49)" stroke-width="1" opacity="1" d="M 444.5 130 L 445.5 132 L 444.5 130 Z " /><path fill="rgb(49,49,49)" stroke="rgb(49,49,49)" stroke-width="1" opacity="1" d="M 465.5 132 L 466.5 134 L 465.5 132 Z " /><path fill="rgb(49,49,49)" stroke="rgb(49,49,49)" stroke-width="1" opacity="1" d="M 449.5 133 L 450.5 135 L 449.5 133 Z " /><path fill="rgb(49,49,49)" stroke="rgb(49,49,49)" stroke-width="1" opacity="1" d="M 468.5 134 L 469.5 136 L 468.5 134 Z " /><path fill="rgb(49,49,49)" stroke="rgb(49,49,49)" stroke-width="1" opacity="1" d="M 456.5 137 L 457.5 139 L 456.5 137 Z " /><path fill="rgb(49,49,49)" stroke="rgb(49,49,49)" stroke-width="1" opacity="1" d="M 472.5 138 L 474.5 141 L 472.5 138 Z " /><path fill="rgb(49,49,49)" stroke="rgb(49,49,49)" stroke-width="1" opacity="1" d="M 461.5 140 L 465.5 145 L 461.5 140 Z " /><path fill="rgb(49,49,49)" stroke="rgb(49,49,49)" stroke-width="1" opacity="1" d="M 466.5 146 L 467.5 148 L 466.5 146 Z " /><path fill="rgb(49,49,49)" stroke="rgb(49,49,49)" stroke-width="1" opacity="1" d="M 477.5 151 L 478 343.5 L 477 343.5 L 477.5 151 Z " /><path fill="rgb(49,49,49)" stroke="rgb(49,49,49)" stroke-width="1" opacity="1" d="M 470.5 155 L 471 351.5 L 472 352.5 L 470 353 L 470.5 155 Z " /><path fill="rgb(49,49,49)" stroke="rgb(49,49,49)" stroke-width="1" opacity="1" d="M 136.5 283 L 135.5 285 L 136.5 283 Z " /><path fill="rgb(49,49,49)" stroke="rgb(49,49,49)" stroke-width="1" opacity="1" d="M 140.5 283 L 144 285.5 L 142.5 285 L 140.5 283 Z " /><path fill="rgb(49,49,49)" stroke="rgb(49,49,49)" stroke-width="1" opacity="1" d="M 308.5 284 L 310 284.5 L 310 306.5 L 312.5 310 L 309 306.5 L 308.5 285 L 306.5 286 L 306.5 285 L 308.5 284 Z " /><path fill="rgb(49,49,49)" stroke="rgb(49,49,49)" stroke-width="1" opacity="1" d="M 304.5 286 L 303.5 288 L 302 287.5 L 304.5 286 Z " /><path fill="rgb(49,49,49)" stroke="rgb(49,49,49)" stroke-width="1" opacity="1" d="M 129.5 287 L 128.5 291 Q 125 289 129.5 287 Z " /><path fill="rgb(49,49,49)" stroke="rgb(49,49,49)" stroke-width="1" opacity="1" d="M 143.5 290 L 142.5 292 L 143.5 290 Z " /><path fill="rgb(49,49,49)" stroke="rgb(49,49,49)" stroke-width="1" opacity="1" d="M 134.5 293 L 137 294.5 L 135.5 295 L 134.5 293 Z " /><path fill="rgb(49,49,49)" stroke="rgb(49,49,49)" stroke-width="1" opacity="1" d="M 119.5 294 L 120.5 296 L 119.5 294 Z " /><path fill="rgb(49,49,49)" stroke="rgb(49,49,49)" stroke-width="1" opacity="1" d="M 159.5 294 L 160.5 296 L 159.5 294 Z " /><path fill="rgb(49,49,49)" stroke="rgb(49,49,49)" stroke-width="1" opacity="1" d="M 115.5 295 L 114.5 297 L 115.5 295 Z " /><path fill="rgb(49,49,49)" stroke="rgb(49,49,49)" stroke-width="1" opacity="1" d="M 151.5 295 L 150.5 297 L 151.5 295 Z " /><path fill="rgb(49,49,49)" stroke="rgb(49,49,49)" stroke-width="1" opacity="1" d="M 124.5 297 L 128 299.5 L 126 300.5 L 126.5 299 L 124.5 297 Z " /><path fill="rgb(49,49,49)" stroke="rgb(49,49,49)" stroke-width="1" opacity="1" d="M 110.5 298 L 109.5 300 L 110.5 298 Z " /><path fill="rgb(49,49,49)" stroke="rgb(49,49,49)" stroke-width="1" opacity="1" d="M 146.5 298 L 147.5 302 Q 143 300 146.5 298 Z " /><path fill="rgb(49,49,49)" stroke="rgb(49,49,49)" stroke-width="1" opacity="1" d="M 166.5 298 L 168.5 301 L 166.5 298 Z " /><path fill="rgb(49,49,49)" stroke="rgb(49,49,49)" stroke-width="1" opacity="1" d="M 107.5 300 L 108.5 302 L 107.5 300 Z " /><path fill="rgb(49,49,49)" stroke="rgb(49,49,49)" stroke-width="1" opacity="1" d="M 124.5 301 L 123.5 303 L 124.5 301 Z " /><path fill="rgb(49,49,49)" stroke="rgb(49,49,49)" stroke-width="1" opacity="1" d="M 110.5 302 L 111.5 304 L 110.5 302 Z " /><path fill="rgb(49,49,49)" stroke="rgb(49,49,49)" stroke-width="1" opacity="1" d="M 164.5 302 L 163.5 304 L 164.5 302 Z " /><path fill="rgb(49,49,49)" stroke="rgb(49,49,49)" stroke-width="1" opacity="1" d="M 317.5 302 L 318.5 304 L 317.5 302 Z " /><path fill="rgb(49,49,49)" stroke="rgb(49,49,49)" stroke-width="1" opacity="1" d="M 279.5 303 L 283 305.5 L 281.5 305 L 279.5 303 Z " /><path fill="rgb(49,49,49)" stroke="rgb(49,49,49)" stroke-width="1" opacity="1" d="M 153.5 304 L 154.5 306 L 153.5 304 Z " /><path fill="rgb(49,49,49)" stroke="rgb(49,49,49)" stroke-width="1" opacity="1" d="M 138.5 305 L 139.5 307 L 138.5 305 Z " /><path fill="rgb(49,49,49)" stroke="rgb(49,49,49)" stroke-width="1" opacity="1" d="M 96.5 306 L 95.5 308 L 96.5 306 Z " /><path fill="rgb(49,49,49)" stroke="rgb(49,49,49)" stroke-width="1" opacity="1" d="M 100.5 306 L 104 308.5 L 102.5 308 L 100.5 306 Z " /><path fill="rgb(49,49,49)" stroke="rgb(49,49,49)" stroke-width="1" opacity="1" d="M 132.5 306 L 131.5 308 L 132.5 306 Z " /><path fill="rgb(49,49,49)" stroke="rgb(49,49,49)" stroke-width="1" opacity="1" d="M 180.5 306 L 181.5 308 L 180.5 306 Z " /><path fill="rgb(49,49,49)" stroke="rgb(49,49,49)" stroke-width="1" opacity="1" d="M 172.5 307 L 171.5 309 L 172.5 307 Z " /><path fill="rgb(49,49,49)" stroke="rgb(49,49,49)" stroke-width="1" opacity="1" d="M 286.5 307 L 287.5 309 L 286.5 307 Z " /><path fill="rgb(49,49,49)" stroke="rgb(49,49,49)" stroke-width="1" opacity="1" d="M 127.5 309 L 125.5 312 L 125 310 L 127.5 309 Z " /><path fill="rgb(49,49,49)" stroke="rgb(49,49,49)" stroke-width="1" opacity="1" d="M 145.5 309 L 146.5 311 L 145.5 309 Z " /><path fill="rgb(49,49,49)" stroke="rgb(49,49,49)" stroke-width="1" opacity="1" d="M 185.5 309 L 186.5 311 L 185.5 309 Z " /><path fill="rgb(49,49,49)" stroke="rgb(49,49,49)" stroke-width="1" opacity="1" d="M 89.5 310 L 88.5 312 L 89.5 310 Z " /><path fill="rgb(49,49,49)" stroke="rgb(49,49,49)" stroke-width="1" opacity="1" d="M 354.5 310 L 355 318.5 L 354 318.5 L 354.5 310 Z " /><path fill="rgb(49,49,49)" stroke="rgb(49,49,49)" stroke-width="1" opacity="1" d="M 148.5 311 L 147.5 313 L 148.5 311 Z " /><path fill="rgb(49,49,49)" stroke="rgb(49,49,49)" stroke-width="1" opacity="1" d="M 188.5 311 L 189.5 313 L 188.5 311 Z " /><path fill="rgb(49,49,49)" stroke="rgb(49,49,49)" stroke-width="1" opacity="1" d="M 275 311 L 351.5 355 Q 355.8 358.2 363.5 358 L 373.5 354 L 402.5 337 L 412 342.5 L 370.5 367 L 364.5 370 L 358.5 370 L 276 323 Q 273.8 319.3 275 311 Z " /><path fill="rgb(49,49,49)" stroke="rgb(49,49,49)" stroke-width="1" opacity="1" d="M 293.5 311 L 294.5 313 L 293.5 311 Z " /><path fill="rgb(49,49,49)" stroke="rgb(49,49,49)" stroke-width="1" opacity="1" d="M 86.5 312 L 87.5 314 L 86.5 312 Z " /><path fill="rgb(49,49,49)" stroke="rgb(49,49,49)" stroke-width="1" opacity="1" d="M 105.5 312 L 104.5 314 L 102.5 315 L 103.5 313 L 105.5 312 Z " /><path fill="rgb(49,49,49)" stroke="rgb(49,49,49)" stroke-width="1" opacity="1" d="M 167.5 312 L 168.5 314 L 167.5 312 Z " /><path fill="rgb(49,49,49)" stroke="rgb(49,49,49)" stroke-width="1" opacity="1" d="M 318.5 312 L 322 314.5 L 320.5 314 L 318.5 312 Z " /><path fill="rgb(49,49,49)" stroke="rgb(49,49,49)" stroke-width="1" opacity="1" d="M 129.5 313 L 130.5 315 L 129.5 313 Z " /><path fill="rgb(49,49,49)" stroke="rgb(49,49,49)" stroke-width="1" opacity="1" d="M 145.5 313 L 144.5 315 L 142.5 316 L 143.5 314 L 145.5 313 Z " /><path fill="rgb(49,49,49)" stroke="rgb(49,49,49)" stroke-width="1" opacity="1" d="M 91.5 315 L 92.5 317 L 91.5 315 Z " /><path fill="rgb(49,49,49)" stroke="rgb(49,49,49)" stroke-width="1" opacity="1" d="M 172.5 315 L 173.5 317 L 172.5 315 Z " /><path fill="rgb(49,49,49)" stroke="rgb(49,49,49)" stroke-width="1" opacity="1" d="M 183.5 315 L 182.5 317 L 183.5 315 Z " /><path fill="rgb(49,49,49)" stroke="rgb(49,49,49)" stroke-width="1" opacity="1" d="M 300.5 315 L 301.5 317 L 300.5 315 Z " /><path fill="rgb(49,49,49)" stroke="rgb(49,49,49)" stroke-width="1" opacity="1" d="M 98.5 316 L 97.5 318 L 98.5 316 Z " /><path fill="rgb(49,49,49)" stroke="rgb(49,49,49)" stroke-width="1" opacity="1" d="M 157.5 316 L 158.5 318 L 157.5 316 Z " /><path fill="rgb(49,49,49)" stroke="rgb(49,49,49)" stroke-width="1" opacity="1" d="M 325.5 316 L 329 318.5 L 327.5 318 L 325.5 316 Z " /><path fill="rgb(49,49,49)" stroke="rgb(49,49,49)" stroke-width="1" opacity="1" d="M 77.5 317 L 76.5 319 L 77.5 317 Z " /><path fill="rgb(49,49,49)" stroke="rgb(49,49,49)" stroke-width="1" opacity="1" d="M 113.5 317 L 112.5 319 L 113.5 317 Z " /><path fill="rgb(49,49,49)" stroke="rgb(49,49,49)" stroke-width="1" opacity="1" d="M 199.5 317 L 200.5 319 L 199.5 317 Z " /><path fill="rgb(49,49,49)" stroke="rgb(49,49,49)" stroke-width="1" opacity="1" d="M 121.5 318 L 122.5 320 L 121.5 318 Z " /><path fill="rgb(49,49,49)" stroke="rgb(49,49,49)" stroke-width="1" opacity="1" d="M 153.5 318 L 152.5 320 L 153.5 318 Z " /><path fill="rgb(49,49,49)" stroke="rgb(49,49,49)" stroke-width="1" opacity="1" d="M 305.5 318 L 306.5 320 L 305.5 318 Z " /><path fill="rgb(49,49,49)" stroke="rgb(49,49,49)" stroke-width="1" opacity="1" d="M 81.5 319 L 85 321.5 L 83.5 321 L 81.5 319 Z " /><path fill="rgb(49,49,49)" stroke="rgb(49,49,49)" stroke-width="1" opacity="1" d="M 193.5 319 L 192.5 321 L 193.5 319 Z " /><path fill="rgb(49,49,49)" stroke="rgb(49,49,49)" stroke-width="1" opacity="1" d="M 164.5 320 L 165.5 322 L 164.5 320 Z " /><path fill="rgb(49,49,49)" stroke="rgb(49,49,49)" stroke-width="1" opacity="1" d="M 204.5 320 L 208 322.5 L 206.5 322 L 204.5 320 Z " /><path fill="rgb(49,49,49)" stroke="rgb(49,49,49)" stroke-width="1" opacity="1" d="M 332.5 320 L 336 322.5 L 334.5 322 L 332.5 320 Z " /><path fill="rgb(49,49,49)" stroke="rgb(49,49,49)" stroke-width="1" opacity="1" d="M 368.5 320 L 367.5 322 L 368.5 320 Z " /><path fill="rgb(49,49,49)" stroke="rgb(49,49,49)" stroke-width="1" opacity="1" d="M 70.5 321 L 69.5 323 L 70.5 321 Z " /><path fill="rgb(49,49,49)" stroke="rgb(49,49,49)" stroke-width="1" opacity="1" d="M 106.5 321 L 104.5 324 L 106.5 321 Z " /><path fill="rgb(49,49,49)" stroke="rgb(49,49,49)" stroke-width="1" opacity="1" d="M 126.5 321 L 128.5 324 L 126.5 321 Z " /><path fill="rgb(49,49,49)" stroke="rgb(49,49,49)" stroke-width="1" opacity="1" d="M 375.5 321 L 376.5 323 L 375.5 321 Z " /><path fill="rgb(49,49,49)" stroke="rgb(49,49,49)" stroke-width="1" opacity="1" d="M 312.5 322 L 313.5 324 L 312.5 322 Z " /><path fill="rgb(49,49,49)" stroke="rgb(49,49,49)" stroke-width="1" opacity="1" d="M 169.5 323 L 168.5 325 L 169.5 323 Z " /><path fill="rgb(49,49,49)" stroke="rgb(49,49,49)" stroke-width="1" opacity="1" d="M 209.5 323 L 210.5 325 L 209.5 323 Z " /><path fill="rgb(49,49,49)" stroke="rgb(49,49,49)" stroke-width="1" opacity="1" d="M 363.5 323 L 362.5 325 L 360.5 326 L 361.5 324 L 363.5 323 Z " /><path fill="rgb(49,49,49)" stroke="rgb(49,49,49)" stroke-width="1" opacity="1" d="M 84.5 324 L 83.5 326 L 84.5 324 Z " /><path fill="rgb(49,49,49)" stroke="rgb(49,49,49)" stroke-width="1" opacity="1" d="M 148.5 324 L 149.5 326 L 148.5 324 Z " /><path fill="rgb(49,49,49)" stroke="rgb(49,49,49)" stroke-width="1" opacity="1" d="M 69.5 325 L 70.5 327 L 69.5 325 Z " /><path fill="rgb(49,49,49)" stroke="rgb(49,49,49)" stroke-width="1" opacity="1" d="M 124.5 325 L 123.5 327 L 124.5 325 Z " /><path fill="rgb(49,49,49)" stroke="rgb(49,49,49)" stroke-width="1" opacity="1" d="M 341.5 325 L 342.5 327 L 341.5 325 Z " /><path fill="rgb(49,49,49)" stroke="rgb(49,49,49)" stroke-width="1" opacity="1" d="M 382.5 325 L 383.5 327 L 382.5 325 Z " /><path fill="rgb(49,49,49)" stroke="rgb(49,49,49)" stroke-width="1" opacity="1" d="M 110.5 326 L 111.5 328 L 110.5 326 Z " /><path fill="rgb(49,49,49)" stroke="rgb(49,49,49)" stroke-width="1" opacity="1" d="M 164.5 326 L 163.5 328 L 164.5 326 Z " /><path fill="rgb(49,49,49)" stroke="rgb(49,49,49)" stroke-width="1" opacity="1" d="M 191.5 326 L 195 328.5 L 193.5 328 L 191.5 326 Z " /><path fill="rgb(49,49,49)" stroke="rgb(49,49,49)" stroke-width="1" opacity="1" d="M 319.5 326 L 320.5 328 L 319.5 326 Z " /><path fill="rgb(49,49,49)" stroke="rgb(49,49,49)" stroke-width="1" opacity="1" d="M 79.5 327 L 78.5 329 L 79.5 327 Z " /><path fill="rgb(49,49,49)" stroke="rgb(49,49,49)" stroke-width="1" opacity="1" d="M 204.5 327 L 203.5 329 L 204.5 327 Z " /><path fill="rgb(49,49,49)" stroke="rgb(49,49,49)" stroke-width="1" opacity="1" d="M 356.5 327 L 355.5 329 L 356.5 327 Z " /><path fill="rgb(49,49,49)" stroke="rgb(49,49,49)" stroke-width="1" opacity="1" d="M 94.5 328 L 93.5 330 L 94.5 328 Z " /><path fill="rgb(49,49,49)" stroke="rgb(49,49,49)" stroke-width="1" opacity="1" d="M 119.5 328 L 118.5 330 L 119.5 328 Z " /><path fill="rgb(49,49,49)" stroke="rgb(49,49,49)" stroke-width="1" opacity="1" d="M 155.5 328 L 156.5 330 L 155.5 328 Z " /><path fill="rgb(49,49,49)" stroke="rgb(49,49,49)" stroke-width="1" opacity="1" d="M 387.5 328 L 388.5 330 L 387.5 328 Z " /><path fill="rgb(49,49,49)" stroke="rgb(49,49,49)" stroke-width="1" opacity="1" d="M 134.5 329 L 133.5 331 L 134.5 329 Z " /><path fill="rgb(49,49,49)" stroke="rgb(49,49,49)" stroke-width="1" opacity="1" d="M 140.5 329 L 141.5 331 L 140.5 329 Z " /><path fill="rgb(49,49,49)" stroke="rgb(49,49,49)" stroke-width="1" opacity="1" d="M 174.5 330 L 173.5 332 L 174.5 330 Z " /><path fill="rgb(49,49,49)" stroke="rgb(49,49,49)" stroke-width="1" opacity="1" d="M 326.5 330 L 327.5 332 L 326.5 330 Z " /><path fill="rgb(49,49,49)" stroke="rgb(49,49,49)" stroke-width="1" opacity="1" d="M 102.5 331 L 103.5 333 L 102.5 331 Z " /><path fill="rgb(49,49,49)" stroke="rgb(49,49,49)" stroke-width="1" opacity="1" d="M 183.5 331 L 184.5 333 L 183.5 331 Z " /><path fill="rgb(49,49,49)" stroke="rgb(49,49,49)" stroke-width="1" opacity="1" d="M 214.5 331 L 213.5 333 L 214.5 331 Z " /><path fill="rgb(49,49,49)" stroke="rgb(49,49,49)" stroke-width="1" opacity="1" d="M 392.5 331 Q 395.5 332.5 392.5 334 L 392.5 331 Z " /><path fill="rgb(49,49,49)" stroke="rgb(49,49,49)" stroke-width="1" opacity="1" d="M 87.5 332 L 86.5 334 L 87.5 332 Z " /><path fill="rgb(49,49,49)" stroke="rgb(49,49,49)" stroke-width="1" opacity="1" d="M 225.5 332 L 226.5 334 L 225.5 332 Z " /><path fill="rgb(49,49,49)" stroke="rgb(49,49,49)" stroke-width="1" opacity="1" d="M 127.5 333 L 125.5 336 L 127.5 333 Z " /><path fill="rgb(49,49,49)" stroke="rgb(49,49,49)" stroke-width="1" opacity="1" d="M 147.5 333 L 149.5 336 L 147.5 333 Z " /><path fill="rgb(49,49,49)" stroke="rgb(49,49,49)" stroke-width="1" opacity="1" d="M 331.5 333 L 332.5 335 L 331.5 333 Z " /><path fill="rgb(49,49,49)" stroke="rgb(49,49,49)" stroke-width="1" opacity="1" d="M 167.5 334 L 168 336 L 171 337.5 L 169.5 337 L 167 335.5 L 167.5 334 Z " /><path fill="rgb(49,49,49)" stroke="rgb(49,49,49)" stroke-width="1" opacity="1" d="M 190.5 335 L 189.5 337 L 190.5 335 Z " /><path fill="rgb(49,49,49)" stroke="rgb(49,49,49)" stroke-width="1" opacity="1" d="M 207.5 335 L 208.5 337 L 207.5 335 Z " /><path fill="rgb(49,49,49)" stroke="rgb(49,49,49)" stroke-width="1" opacity="1" d="M 88.5 336 L 89.5 338 L 88.5 336 Z " /><path fill="rgb(49,49,49)" stroke="rgb(49,49,49)" stroke-width="1" opacity="1" d="M 105.5 336 L 104.5 338 L 105.5 336 Z " /><path fill="rgb(49,49,49)" stroke="rgb(49,49,49)" stroke-width="1" opacity="1" d="M 386.5 336 L 385.5 338 L 386.5 336 Z " /><path fill="rgb(49,49,49)" stroke="rgb(49,49,49)" stroke-width="1" opacity="1" d="M 129.5 337 L 130.5 339 L 129.5 337 Z " /><path fill="rgb(49,49,49)" stroke="rgb(49,49,49)" stroke-width="1" opacity="1" d="M 145.5 337 L 144.5 339 L 145.5 337 Z " /><path fill="rgb(49,49,49)" stroke="rgb(49,49,49)" stroke-width="1" opacity="1" d="M 338.5 337 L 339.5 339 L 338.5 337 Z " /><path fill="rgb(49,49,49)" stroke="rgb(49,49,49)" stroke-width="1" opacity="1" d="M 185.5 338 L 184.5 340 L 185.5 338 Z " /><path fill="rgb(49,49,49)" stroke="rgb(49,49,49)" stroke-width="1" opacity="1" d="M 212.5 338 L 213.5 340 L 212.5 338 Z " /><path fill="rgb(49,49,49)" stroke="rgb(49,49,49)" stroke-width="1" opacity="1" d="M 174.5 339 L 175.5 341 L 174.5 339 Z " /><path fill="rgb(49,49,49)" stroke="rgb(49,49,49)" stroke-width="1" opacity="1" d="M 225.5 339 L 224.5 341 L 225.5 339 Z " /><path fill="rgb(49,49,49)" stroke="rgb(49,49,49)" stroke-width="1" opacity="1" d="M 95.5 340 L 97.5 341 L 99 340.5 L 96.5 342 L 95.5 340 Z " /><path fill="rgb(49,49,49)" stroke="rgb(49,49,49)" stroke-width="1" opacity="1" d="M 115.5 340 L 114.5 342 L 112.5 343 L 113.5 341 L 115.5 340 Z " /><path fill="rgb(49,49,49)" stroke="rgb(49,49,49)" stroke-width="1" opacity="1" d="M 159.5 340 L 160.5 342 L 159.5 340 Z " /><path fill="rgb(49,49,49)" stroke="rgb(49,49,49)" stroke-width="1" opacity="1" d="M 379.5 340 L 378.5 342 L 379.5 340 Z " /><path fill="rgb(49,49,49)" stroke="rgb(49,49,49)" stroke-width="1" opacity="1" d="M 155.5 341 L 154.5 343 L 152.5 344 L 153.5 342 L 155.5 341 Z " /><path fill="rgb(49,49,49)" stroke="rgb(49,49,49)" stroke-width="1" opacity="1" d="M 217.5 341 L 221 342.5 L 218.5 343 L 217.5 341 Z " /><path fill="rgb(49,49,49)" stroke="rgb(49,49,49)" stroke-width="1" opacity="1" d="M 345.5 341 L 346.5 343 L 345.5 341 Z " /><path fill="rgb(49,49,49)" stroke="rgb(49,49,49)" stroke-width="1" opacity="1" d="M 121.5 342 L 122.5 344 L 121.5 342 Z " /><path fill="rgb(49,49,49)" stroke="rgb(49,49,49)" stroke-width="1" opacity="1" d="M 195.5 342 L 194.5 344 L 192.5 345 L 193.5 343 L 195.5 342 Z " /><path fill="rgb(49,49,49)" stroke="rgb(49,49,49)" stroke-width="1" opacity="1" d="M 202.5 342 L 203.5 344 L 202.5 342 Z " /><path fill="rgb(49,49,49)" stroke="rgb(49,49,49)" stroke-width="1" opacity="1" d="M 244.5 343 L 245.5 345 L 244.5 343 Z " /><path fill="rgb(49,49,49)" stroke="rgb(49,49,49)" stroke-width="1" opacity="1" d="M 108.5 344 L 107.5 346 L 108.5 344 Z " /><path fill="rgb(49,49,49)" stroke="rgb(49,49,49)" stroke-width="1" opacity="1" d="M 166.5 344 L 167.5 346 L 166.5 344 Z " /><path fill="rgb(49,49,49)" stroke="rgb(49,49,49)" stroke-width="1" opacity="1" d="M 233.5 344 L 232.5 346 L 233.5 344 Z " /><path fill="rgb(49,49,49)" stroke="rgb(49,49,49)" stroke-width="1" opacity="1" d="M 350.5 344 L 354 346.5 L 352.5 346 L 350.5 344 Z " /><path fill="rgb(49,49,49)" stroke="rgb(49,49,49)" stroke-width="1" opacity="1" d="M 372.5 344 L 371.5 346 L 372.5 344 Z " /><path fill="rgb(49,49,49)" stroke="rgb(49,49,49)" stroke-width="1" opacity="1" d="M 148.5 345 L 146.5 348 L 148.5 345 Z " /><path fill="rgb(49,49,49)" stroke="rgb(49,49,49)" stroke-width="1" opacity="1" d="M 128.5 346 L 129.5 348 L 128.5 346 Z " /><path fill="rgb(49,49,49)" stroke="rgb(49,49,49)" stroke-width="1" opacity="1" d="M 169.5 346 L 170.5 348 L 169.5 346 Z " /><path fill="rgb(49,49,49)" stroke="rgb(49,49,49)" stroke-width="1" opacity="1" d="M 188.5 346 L 190 348.5 L 188 347.5 L 188.5 346 Z " /><path fill="rgb(49,49,49)" stroke="rgb(49,49,49)" stroke-width="1" opacity="1" d="M 209.5 346 L 211 348.5 L 210 348.5 L 209.5 346 Z " /><path fill="rgb(49,49,49)" stroke="rgb(49,49,49)" stroke-width="1" opacity="1" d="M 228.5 347 L 229.5 349 L 228.5 347 Z " /><path fill="rgb(49,49,49)" stroke="rgb(49,49,49)" stroke-width="1" opacity="1" d="M 251.5 347 L 252 348.5 L 250 349.5 L 251.5 347 Z " /><path fill="rgb(49,49,49)" stroke="rgb(49,49,49)" stroke-width="1" opacity="1" d="M 367.5 347 L 366.5 349 L 365 348.5 L 367.5 347 Z " /><path fill="rgb(49,49,49)" stroke="rgb(49,49,49)" stroke-width="1" opacity="1" d="M 109.5 348 L 110.5 350 L 109.5 348 Z " /><path fill="rgb(49,49,49)" stroke="rgb(49,49,49)" stroke-width="1" opacity="1" d="M 148.5 348 L 152 350.5 L 150.5 350 L 148.5 348 Z " /><path fill="rgb(49,49,49)" stroke="rgb(49,49,49)" stroke-width="1" opacity="1" d="M 133.5 349 L 134.5 351 L 133.5 349 Z " /><path fill="rgb(49,49,49)" stroke="rgb(49,49,49)" stroke-width="1" opacity="1" d="M 166.5 349 L 165.5 351 L 166.5 349 Z " /><path fill="rgb(49,49,49)" stroke="rgb(49,49,49)" stroke-width="1" opacity="1" d="M 231.5 349 L 232.5 351 L 231.5 349 Z " /><path fill="rgb(49,49,49)" stroke="rgb(49,49,49)" stroke-width="1" opacity="1" d="M 359.5 349 L 364 349.5 L 359.5 350 L 359.5 349 Z " /><path fill="rgb(49,49,49)" stroke="rgb(49,49,49)" stroke-width="1" opacity="1" d="M 475.5 349 L 473.5 352 L 475.5 349 Z " /><path fill="rgb(49,49,49)" stroke="rgb(49,49,49)" stroke-width="1" opacity="1" d="M 193.5 350 L 197 352.5 L 195.5 352 L 193.5 350 Z " /><path fill="rgb(49,49,49)" stroke="rgb(49,49,49)" stroke-width="1" opacity="1" d="M 206.5 350 L 205.5 352 L 206.5 350 Z " /><path fill="rgb(49,49,49)" stroke="rgb(49,49,49)" stroke-width="1" opacity="1" d="M 114.5 351 L 115.5 353 L 114.5 351 Z " /><path fill="rgb(49,49,49)" stroke="rgb(49,49,49)" stroke-width="1" opacity="1" d="M 246.5 351 L 245.5 353 L 246.5 351 Z " /><path fill="rgb(49,49,49)" stroke="rgb(49,49,49)" stroke-width="1" opacity="1" d="M 155.5 352 L 156.5 354 L 155.5 352 Z " /><path fill="rgb(49,49,49)" stroke="rgb(49,49,49)" stroke-width="1" opacity="1" d="M 140.5 353 L 141.5 355 L 140.5 353 Z " /><path fill="rgb(49,49,49)" stroke="rgb(49,49,49)" stroke-width="1" opacity="1" d="M 221.5 353 L 225 355.5 L 223.5 355 L 221.5 353 Z " /><path fill="rgb(49,49,49)" stroke="rgb(49,49,49)" stroke-width="1" opacity="1" d="M 238.5 353 L 239.5 355 L 238.5 353 Z " /><path fill="rgb(49,49,49)" stroke="rgb(49,49,49)" stroke-width="1" opacity="1" d="M 174.5 354 L 173.5 356 L 174.5 354 Z " /><path fill="rgb(49,49,49)" stroke="rgb(49,49,49)" stroke-width="1" opacity="1" d="M 263.5 354 L 264.5 356 L 263.5 354 Z " /><path fill="rgb(49,49,49)" stroke="rgb(49,49,49)" stroke-width="1" opacity="1" d="M 121.5 355 L 122.5 357 L 121.5 355 Z " /><path fill="rgb(49,49,49)" stroke="rgb(49,49,49)" stroke-width="1" opacity="1" d="M 185.5 355 L 186.5 357 L 185.5 355 Z " /><path fill="rgb(49,49,49)" stroke="rgb(49,49,49)" stroke-width="1" opacity="1" d="M 214.5 355 L 213.5 357 L 214.5 355 Z " /><path fill="rgb(49,49,49)" stroke="rgb(49,49,49)" stroke-width="1" opacity="1" d="M 254.5 356 L 253.5 358 L 254.5 356 Z " /><path fill="rgb(49,49,49)" stroke="rgb(49,49,49)" stroke-width="1" opacity="1" d="M 147.5 357 L 148.5 359 L 147.5 357 Z " /><path fill="rgb(49,49,49)" stroke="rgb(49,49,49)" stroke-width="1" opacity="1" d="M 169.5 357 L 167.5 360 L 167 358 L 169.5 357 Z " /><path fill="rgb(49,49,49)" stroke="rgb(49,49,49)" stroke-width="1" opacity="1" d="M 228.5 357 L 229.5 359 L 228.5 357 Z " /><path fill="rgb(49,49,49)" stroke="rgb(49,49,49)" stroke-width="1" opacity="1" d="M 190.5 358 L 191.5 360 L 190.5 358 Z " /><path fill="rgb(49,49,49)" stroke="rgb(49,49,49)" stroke-width="1" opacity="1" d="M 209.5 358 L 208.5 360 L 209.5 358 Z " /><path fill="rgb(49,49,49)" stroke="rgb(49,49,49)" stroke-width="1" opacity="1" d="M 270.5 358 Q 275 360 271.5 362 L 270.5 358 Z " /><path fill="rgb(49,49,49)" stroke="rgb(49,49,49)" stroke-width="1" opacity="1" d="M 128.5 359 L 129.5 361 L 128.5 359 Z " /><path fill="rgb(49,49,49)" stroke="rgb(49,49,49)" stroke-width="1" opacity="1" d="M 249.5 359 L 251.5 362 L 249.5 359 Z " /><path fill="rgb(49,49,49)" stroke="rgb(49,49,49)" stroke-width="1" opacity="1" d="M 169.5 360 L 170.5 362 L 169.5 360 Z " /><path fill="rgb(49,49,49)" stroke="rgb(49,49,49)" stroke-width="1" opacity="1" d="M 154.5 361 L 155.5 363 L 154.5 361 Z " /><path fill="rgb(49,49,49)" stroke="rgb(49,49,49)" stroke-width="1" opacity="1" d="M 187.5 361 L 186.5 363 L 187.5 361 Z " /><path fill="rgb(49,49,49)" stroke="rgb(49,49,49)" stroke-width="1" opacity="1" d="M 133.5 362 L 137 364.5 L 135.5 364 L 133.5 362 Z " /><path fill="rgb(49,49,49)" stroke="rgb(49,49,49)" stroke-width="1" opacity="1" d="M 214.5 362 L 215.5 364 L 214.5 362 Z " /><path fill="rgb(49,49,49)" stroke="rgb(49,49,49)" stroke-width="1" opacity="1" d="M 227.5 362 L 226.5 364 L 224.5 365 L 225.5 363 L 227.5 362 Z " /><path fill="rgb(49,49,49)" stroke="rgb(49,49,49)" stroke-width="1" opacity="1" d="M 174.5 363 L 178 365.5 L 176.5 365 L 174.5 363 Z " /><path fill="rgb(49,49,49)" stroke="rgb(49,49,49)" stroke-width="1" opacity="1" d="M 267.5 363 L 266.5 365 L 264.5 366 L 265.5 364 L 267.5 363 Z " /><path fill="rgb(49,49,49)" stroke="rgb(49,49,49)" stroke-width="1" opacity="1" d="M 159.5 364 L 163 366.5 L 161.5 366 L 159.5 364 Z " /><path fill="rgb(49,49,49)" stroke="rgb(49,49,49)" stroke-width="1" opacity="1" d="M 257.5 364 L 258.5 366 L 257.5 364 Z " /><path fill="rgb(49,49,49)" stroke="rgb(49,49,49)" stroke-width="1" opacity="1" d="M 180.5 365 L 179.5 367 L 180.5 365 Z " /><path fill="rgb(49,49,49)" stroke="rgb(49,49,49)" stroke-width="1" opacity="1" d="M 219.5 365 L 220.5 367 L 219.5 365 Z " /><path fill="rgb(49,49,49)" stroke="rgb(49,49,49)" stroke-width="1" opacity="1" d="M 242.5 365 L 243.5 367 L 242.5 365 Z " /><path fill="rgb(49,49,49)" stroke="rgb(49,49,49)" stroke-width="1" opacity="1" d="M 281.5 365 L 284 366.5 L 282.5 366 L 281.5 365 Z " /><path fill="rgb(49,49,49)" stroke="rgb(49,49,49)" stroke-width="1" opacity="1" d="M 140.5 366 L 141.5 368 L 140.5 366 Z " /><path fill="rgb(49,49,49)" stroke="rgb(49,49,49)" stroke-width="1" opacity="1" d="M 195.5 366 L 194.5 368 L 195.5 366 Z " /><path fill="rgb(49,49,49)" stroke="rgb(49,49,49)" stroke-width="1" opacity="1" d="M 204.5 366 L 205.5 368 L 204.5 366 Z " /><path fill="rgb(49,49,49)" stroke="rgb(49,49,49)" stroke-width="1" opacity="1" d="M 235.5 367 L 234.5 369 L 235.5 367 Z " /><path fill="rgb(49,49,49)" stroke="rgb(49,49,49)" stroke-width="1" opacity="1" d="M 166.5 368 L 167.5 370 L 166.5 368 Z " /><path fill="rgb(49,49,49)" stroke="rgb(49,49,49)" stroke-width="1" opacity="1" d="M 247.5 368 L 248.5 370 L 247.5 368 Z " /><path fill="rgb(49,49,49)" stroke="rgb(49,49,49)" stroke-width="1" opacity="1" d="M 275.5 368 L 274.5 370 L 275.5 368 Z " /><path fill="rgb(49,49,49)" stroke="rgb(49,49,49)" stroke-width="1" opacity="1" d="M 289.5 369 L 290.5 371 L 289.5 369 Z " /><path fill="rgb(49,49,49)" stroke="rgb(49,49,49)" stroke-width="1" opacity="1" d="M 147.5 370 L 148.5 372 L 147.5 370 Z " /><path fill="rgb(49,49,49)" stroke="rgb(49,49,49)" stroke-width="1" opacity="1" d="M 188.5 370 L 190 372.5 L 188 371.5 L 188.5 370 Z " /><path fill="rgb(49,49,49)" stroke="rgb(49,49,49)" stroke-width="1" opacity="1" d="M 230.5 370 L 229.5 372 L 230.5 370 Z " /><path fill="rgb(49,49,49)" stroke="rgb(49,49,49)" stroke-width="1" opacity="1" d="M 292.5 371 Q 295.5 372.5 292.5 374 L 292.5 371 Z " /><path fill="rgb(49,49,49)" stroke="rgb(49,49,49)" stroke-width="1" opacity="1" d="M 173.5 372 L 174.5 374 L 173.5 372 Z " /><path fill="rgb(49,49,49)" stroke="rgb(49,49,49)" stroke-width="1" opacity="1" d="M 233.5 373 L 234.5 375 L 233.5 373 Z " /><path fill="rgb(49,49,49)" stroke="rgb(49,49,49)" stroke-width="1" opacity="1" d="M 154.5 374 L 155.5 376 L 154.5 374 Z " /><path fill="rgb(49,49,49)" stroke="rgb(49,49,49)" stroke-width="1" opacity="1" d="M 206.5 374 L 205.5 376 L 206.5 374 Z " /><path fill="rgb(49,49,49)" stroke="rgb(49,49,49)" stroke-width="1" opacity="1" d="M 178.5 375 L 182 377.5 L 180.5 377 L 178.5 375 Z " /><path fill="rgb(49,49,49)" stroke="rgb(49,49,49)" stroke-width="1" opacity="1" d="M 195.5 375 L 196.5 377 L 195.5 375 Z " /><path fill="rgb(49,49,49)" stroke="rgb(49,49,49)" stroke-width="1" opacity="1" d="M 246.5 375 L 245.5 377 L 246.5 375 Z " /><path fill="rgb(49,49,49)" stroke="rgb(49,49,49)" stroke-width="1" opacity="1" d="M 276.5 375 L 277.5 377 L 276.5 375 Z " /><path fill="rgb(49,49,49)" stroke="rgb(49,49,49)" stroke-width="1" opacity="1" d="M 286.5 376 L 285.5 378 L 286.5 376 Z " /><path fill="rgb(49,49,49)" stroke="rgb(49,49,49)" stroke-width="1" opacity="1" d="M 159.5 377 L 163 379.5 L 161.5 379 L 159.5 377 Z " /><path fill="rgb(49,49,49)" stroke="rgb(49,49,49)" stroke-width="1" opacity="1" d="M 201.5 377 L 200.5 379 L 201.5 377 Z " /><path fill="rgb(49,49,49)" stroke="rgb(49,49,49)" stroke-width="1" opacity="1" d="M 223.5 377 L 224.5 379 L 223.5 377 Z " /><path fill="rgb(49,49,49)" stroke="rgb(49,49,49)" stroke-width="1" opacity="1" d="M 240.5 377 L 241.5 379 L 240.5 377 Z " /><path fill="rgb(49,49,49)" stroke="rgb(49,49,49)" stroke-width="1" opacity="1" d="M 301.5 377 L 305 378.5 L 303.5 378 L 300.5 379 L 301.5 377 Z " /><path fill="rgb(49,49,49)" stroke="rgb(49,49,49)" stroke-width="1" opacity="1" d="M 216.5 378 L 215.5 380 L 216.5 378 Z " /><path fill="rgb(49,49,49)" stroke="rgb(49,49,49)" stroke-width="1" opacity="1" d="M 185.5 379 L 186.5 381 L 185.5 379 Z " /><path fill="rgb(49,49,49)" stroke="rgb(49,49,49)" stroke-width="1" opacity="1" d="M 256.5 379 L 255.5 381 L 256.5 379 Z " /><path fill="rgb(49,49,49)" stroke="rgb(49,49,49)" stroke-width="1" opacity="1" d="M 268.5 380 L 269.5 382 L 268.5 380 Z " /><path fill="rgb(49,49,49)" stroke="rgb(49,49,49)" stroke-width="1" opacity="1" d="M 296.5 380 L 295.5 382 L 296.5 380 Z " /><path fill="rgb(49,49,49)" stroke="rgb(49,49,49)" stroke-width="1" opacity="1" d="M 308.5 380 L 312 382.5 L 310.5 382 L 308.5 380 Z " /><path fill="rgb(49,49,49)" stroke="rgb(49,49,49)" stroke-width="1" opacity="1" d="M 166.5 381 L 167.5 383 L 166.5 381 Z " /><path fill="rgb(49,49,49)" stroke="rgb(49,49,49)" stroke-width="1" opacity="1" d="M 230.5 381 L 231.5 383 L 230.5 381 Z " /><path fill="rgb(49,49,49)" stroke="rgb(49,49,49)" stroke-width="1" opacity="1" d="M 251.5 382 L 250.5 384 L 251.5 382 Z " /><path fill="rgb(49,49,49)" stroke="rgb(49,49,49)" stroke-width="1" opacity="1" d="M 192.5 383 L 193.5 385 L 192.5 383 Z " /><path fill="rgb(49,49,49)" stroke="rgb(49,49,49)" stroke-width="1" opacity="1" d="M 313.5 383 Q 316.5 384.5 313.5 386 L 313.5 383 Z " /><path fill="rgb(49,49,49)" stroke="rgb(49,49,49)" stroke-width="1" opacity="1" d="M 252.5 384 L 253.5 386 L 252.5 384 Z " /><path fill="rgb(49,49,49)" stroke="rgb(49,49,49)" stroke-width="1" opacity="1" d="M 173.5 385 L 174.5 387 L 173.5 385 Z " /><path fill="rgb(49,49,49)" stroke="rgb(49,49,49)" stroke-width="1" opacity="1" d="M 214.5 386 L 215.5 388 L 214.5 386 Z " /><path fill="rgb(49,49,49)" stroke="rgb(49,49,49)" stroke-width="1" opacity="1" d="M 227.5 386 L 226.5 388 L 227.5 386 Z " /><path fill="rgb(49,49,49)" stroke="rgb(49,49,49)" stroke-width="1" opacity="1" d="M 295.5 386 L 296.5 388 L 295.5 386 Z " /><path fill="rgb(49,49,49)" stroke="rgb(49,49,49)" stroke-width="1" opacity="1" d="M 199.5 387 L 200.5 389 L 199.5 387 Z " /><path fill="rgb(49,49,49)" stroke="rgb(49,49,49)" stroke-width="1" opacity="1" d="M 267.5 387 L 266.5 389 L 267.5 387 Z " /><path fill="rgb(49,49,49)" stroke="rgb(49,49,49)" stroke-width="1" opacity="1" d="M 259.5 388 L 260.5 390 L 259.5 388 Z " /><path fill="rgb(49,49,49)" stroke="rgb(49,49,49)" stroke-width="1" opacity="1" d="M 307.5 388 L 306.5 390 L 307.5 388 Z " /><path fill="rgb(49,49,49)" stroke="rgb(49,49,49)" stroke-width="1" opacity="1" d="M 180.5 389 L 181.5 391 L 180.5 389 Z " /><path fill="rgb(49,49,49)" stroke="rgb(49,49,49)" stroke-width="1" opacity="1" d="M 244.5 389 L 245.5 391 L 244.5 389 Z " /><path fill="rgb(49,49,49)" stroke="rgb(49,49,49)" stroke-width="1" opacity="1" d="M 322.5 389 L 324 389.5 L 321.5 391 L 322.5 389 Z " /><path fill="rgb(49,49,49)" stroke="rgb(49,49,49)" stroke-width="1" opacity="1" d="M 204.5 390 L 205.5 392 L 204.5 390 Z " /><path fill="rgb(49,49,49)" stroke="rgb(49,49,49)" stroke-width="1" opacity="1" d="M 237.5 390 L 236.5 392 L 234.5 393 L 235.5 391 L 237.5 390 Z " /><path fill="rgb(49,49,49)" stroke="rgb(49,49,49)" stroke-width="1" opacity="1" d="M 277.5 391 L 276.5 393 L 274.5 394 L 275.5 392 L 277.5 391 Z " /><path fill="rgb(49,49,49)" stroke="rgb(49,49,49)" stroke-width="1" opacity="1" d="M 287.5 391 L 288.5 393 L 287.5 391 Z " /><path fill="rgb(49,49,49)" stroke="rgb(49,49,49)" stroke-width="1" opacity="1" d="M 327.5 391 L 328.5 393 L 327.5 391 Z " /><path fill="rgb(49,49,49)" stroke="rgb(49,49,49)" stroke-width="1" opacity="1" d="M 185.5 392 L 186.5 394 L 185.5 392 Z " /><path fill="rgb(49,49,49)" stroke="rgb(49,49,49)" stroke-width="1" opacity="1" d="M 249.5 392 L 250.5 394 L 249.5 392 Z " /><path fill="rgb(49,49,49)" stroke="rgb(49,49,49)" stroke-width="1" opacity="1" d="M 317.5 392 L 316.5 394 L 314.5 395 L 315.5 393 L 317.5 392 Z " /><path fill="rgb(49,49,49)" stroke="rgb(49,49,49)" stroke-width="1" opacity="1" d="M 211.5 394 L 212.5 396 L 211.5 394 Z " /><path fill="rgb(49,49,49)" stroke="rgb(49,49,49)" stroke-width="1" opacity="1" d="M 230.5 394 L 229.5 396 L 230.5 394 Z " /><path fill="rgb(49,49,49)" stroke="rgb(49,49,49)" stroke-width="1" opacity="1" d="M 272.5 394 L 272.5 397 Q 269.5 395.5 272.5 394 Z " /><path fill="rgb(49,49,49)" stroke="rgb(49,49,49)" stroke-width="1" opacity="1" d="M 292.5 394 L 295 395 Q 296.1 397.7 293.5 397 L 292 397.5 L 293 395.5 L 292.5 394 Z " /><path fill="rgb(49,49,49)" stroke="rgb(49,49,49)" stroke-width="1" opacity="1" d="M 334.5 395 L 336.5 398 L 334.5 395 Z " /><path fill="rgb(49,49,49)" stroke="rgb(49,49,49)" stroke-width="1" opacity="1" d="M 192.5 396 L 193.5 398 L 192.5 396 Z " /><path fill="rgb(49,49,49)" stroke="rgb(49,49,49)" stroke-width="1" opacity="1" d="M 233.5 397 L 234.5 399 L 233.5 397 Z " /><path fill="rgb(49,49,49)" stroke="rgb(49,49,49)" stroke-width="1" opacity="1" d="M 314.5 397 L 318 399.5 L 316.5 399 L 314.5 397 Z " /><path fill="rgb(49,49,49)" stroke="rgb(49,49,49)" stroke-width="1" opacity="1" d="M 218.5 398 L 219.5 400 L 218.5 398 Z " /><path fill="rgb(49,49,49)" stroke="rgb(49,49,49)" stroke-width="1" opacity="1" d="M 248.5 398 L 247.5 400 L 248.5 398 Z " /><path fill="rgb(49,49,49)" stroke="rgb(49,49,49)" stroke-width="1" opacity="1" d="M 334.5 398 L 333.5 400 L 334.5 398 Z " /><path fill="rgb(49,49,49)" stroke="rgb(49,49,49)" stroke-width="1" opacity="1" d="M 278.5 399 L 279.5 401 L 278.5 399 Z " /><path fill="rgb(49,49,49)" stroke="rgb(49,49,49)" stroke-width="1" opacity="1" d="M 288.5 399 L 287.5 401 L 288.5 399 Z " /><path fill="rgb(49,49,49)" stroke="rgb(49,49,49)" stroke-width="1" opacity="1" d="M 199.5 400 L 200.5 402 L 199.5 400 Z " /><path fill="rgb(49,49,49)" stroke="rgb(49,49,49)" stroke-width="1" opacity="1" d="M 262.5 400 L 265 401.5 L 263.5 401 L 262.5 400 Z " /><path fill="rgb(49,49,49)" stroke="rgb(49,49,49)" stroke-width="1" opacity="1" d="M 240.5 401 L 241.5 403 L 240.5 401 Z " /><path fill="rgb(49,49,49)" stroke="rgb(49,49,49)" stroke-width="1" opacity="1" d="M 321.5 401 L 322.5 403 L 321.5 401 Z " /><path fill="rgb(49,49,49)" stroke="rgb(49,49,49)" stroke-width="1" opacity="1" d="M 329.5 401 L 328.5 403 L 329.5 401 Z " /><path fill="rgb(49,49,49)" stroke="rgb(49,49,49)" stroke-width="1" opacity="1" d="M 225.5 402 L 226.5 404 L 225.5 402 Z " /><path fill="rgb(49,49,49)" stroke="rgb(49,49,49)" stroke-width="1" opacity="1" d="M 306.5 402 L 307.5 404 L 306.5 402 Z " /><path fill="rgb(49,49,49)" stroke="rgb(49,49,49)" stroke-width="1" opacity="1" d="M 256.5 403 L 255.5 405 L 256.5 403 Z " /><path fill="rgb(49,49,49)" stroke="rgb(49,49,49)" stroke-width="1" opacity="1" d="M 268.5 403 L 272 405.5 L 270.5 405 L 268.5 403 Z " /><path fill="rgb(49,49,49)" stroke="rgb(49,49,49)" stroke-width="1" opacity="1" d="M 206.5 404 L 207.5 406 L 206.5 404 Z " /><path fill="rgb(49,49,49)" stroke="rgb(49,49,49)" stroke-width="1" opacity="1" d="M 296.5 404 L 295.5 406 L 296.5 404 Z " /><path fill="rgb(49,49,49)" stroke="rgb(49,49,49)" stroke-width="1" opacity="1" d="M 230.5 405 L 231.5 407 L 230.5 405 Z " /><path fill="rgb(49,49,49)" stroke="rgb(49,49,49)" stroke-width="1" opacity="1" d="M 251.5 406 L 250.5 408 L 251.5 406 Z " /><path fill="rgb(49,49,49)" stroke="rgb(49,49,49)" stroke-width="1" opacity="1" d="M 273.5 406 Q 276.5 407.5 273.5 409 L 273.5 406 Z " /><path fill="rgb(49,49,49)" stroke="rgb(49,49,49)" stroke-width="1" opacity="1" d="M 293.5 406 L 293.5 409 Q 290.5 407.5 293.5 406 Z " /><path fill="rgb(49,49,49)" stroke="rgb(49,49,49)" stroke-width="1" opacity="1" d="M 313.5 406 L 314.5 408 L 313.5 406 Z " /><path fill="rgb(49,49,49)" stroke="rgb(49,49,49)" stroke-width="1" opacity="1" d="M 211.5 407 L 212.5 409 L 211.5 407 Z " /><path fill="rgb(49,49,49)" stroke="rgb(49,49,49)" stroke-width="1" opacity="1" d="M 252.5 408 L 253.5 410 L 252.5 408 Z " /><path fill="rgb(49,49,49)" stroke="rgb(49,49,49)" stroke-width="1" opacity="1" d="M 316.5 408 L 314.5 411 L 316.5 408 Z " /><path fill="rgb(49,49,49)" stroke="rgb(49,49,49)" stroke-width="1" opacity="1" d="M 229.5 409 L 228.5 411 L 229.5 409 Z " /><path fill="rgb(49,49,49)" stroke="rgb(49,49,49)" stroke-width="1" opacity="1" d="M 269.5 410 L 268.5 412 L 269.5 410 Z " /><path fill="rgb(49,49,49)" stroke="rgb(49,49,49)" stroke-width="1" opacity="1" d="M 297.5 410 L 298.5 412 L 297.5 410 Z " /><path fill="rgb(49,49,49)" stroke="rgb(49,49,49)" stroke-width="1" opacity="1" d="M 369.5 410 Q 372.5 411.5 371 417.5 L 370 417.5 Q 370.5 411.5 369.5 410 Z " /><path fill="rgb(49,49,49)" stroke="rgb(49,49,49)" stroke-width="1" opacity="1" d="M 218.5 411 L 219.5 413 L 218.5 411 Z " /><path fill="rgb(49,49,49)" stroke="rgb(49,49,49)" stroke-width="1" opacity="1" d="M 259.5 412 L 260.5 414 L 259.5 412 Z " /><path fill="rgb(49,49,49)" stroke="rgb(49,49,49)" stroke-width="1" opacity="1" d="M 310.5 412 L 309.5 414 L 307.5 415 L 308.5 413 L 310.5 412 Z " /><path fill="rgb(49,49,49)" stroke="rgb(49,49,49)" stroke-width="1" opacity="1" d="M 244.5 413 L 245.5 415 L 244.5 413 Z " /><path fill="rgb(49,49,49)" stroke="rgb(49,49,49)" stroke-width="1" opacity="1" d="M 237.5 414 L 236.5 416 L 237.5 414 Z " /><path fill="rgb(49,49,49)" stroke="rgb(49,49,49)" stroke-width="1" opacity="1" d="M 304.5 414 L 305.5 416 L 304.5 414 Z " /><path fill="rgb(49,49,49)" stroke="rgb(49,49,49)" stroke-width="1" opacity="1" d="M 277.5 415 L 276.5 417 L 277.5 415 Z " /><path fill="rgb(49,49,49)" stroke="rgb(49,49,49)" stroke-width="1" opacity="1" d="M 289.5 415 L 290.5 417 L 289.5 415 Z " /><path fill="rgb(49,49,49)" stroke="rgb(49,49,49)" stroke-width="1" opacity="1" d="M 249.5 416 L 253 418.5 L 251.5 418 L 249.5 416 Z " /><path fill="rgb(49,49,49)" stroke="rgb(49,49,49)" stroke-width="1" opacity="1" d="M 272.5 418 L 272.5 421 Q 269.5 419.5 272.5 418 Z " /><path fill="rgb(49,49,49)" stroke="rgb(49,49,49)" stroke-width="1" opacity="1" d="M 294.5 418 Q 299 420 295.5 422 L 294.5 418 Z " /><path fill="rgb(49,49,49)" stroke="rgb(49,49,49)" stroke-width="1" opacity="1" d="M 231.5 419 L 234 420.5 L 232.5 420 L 231.5 419 Z " /><path fill="rgb(49,49,49)" stroke="rgb(49,49,49)" stroke-width="1" opacity="1" d="M 237.5 422 L 238.5 424 L 237.5 422 Z " /><path fill="rgb(49,49,49)" stroke="rgb(49,49,49)" stroke-width="1" opacity="1" d="M 248.5 422 L 247.5 424 L 248.5 422 Z " /><path fill="rgb(49,49,49)" stroke="rgb(49,49,49)" stroke-width="1" opacity="1" d="M 278.5 423 L 279.5 425 L 278.5 423 Z " /><path fill="rgb(49,49,49)" stroke="rgb(49,49,49)" stroke-width="1" opacity="1" d="M 262.5 424 L 265 425.5 L 263.5 425 L 262.5 424 Z " /><path fill="rgb(49,49,49)" stroke="rgb(49,49,49)" stroke-width="1" opacity="1" d="M 289.5 424 L 288.5 426 L 289.5 424 Z " /><path fill="rgb(49,49,49)" stroke="rgb(49,49,49)" stroke-width="1" opacity="1" d="M 258.5 426 L 257.5 428 L 258.5 426 Z " /><path fill="rgb(49,49,49)" stroke="rgb(49,49,49)" stroke-width="1" opacity="1" d="M 270.5 428 L 271.5 430 L 270.5 428 Z " /><path fill="rgb(49,49,49)" stroke="rgb(49,49,49)" stroke-width="1" opacity="1" d="M 405.5 430 L 408 430.5 L 405.5 431 L 405.5 430 Z " /><path fill="rgb(49,49,49)" stroke="rgb(49,49,49)" stroke-width="1" opacity="1" d="M 401.5 431 L 403 431.5 L 400.5 433 L 401.5 431 Z " /><path fill="rgb(49,49,49)" stroke="rgb(49,49,49)" stroke-width="1" opacity="1" d="M 256.5 433 L 260 435.5 L 258.5 435 L 256.5 433 Z " /><path fill="rgb(49,49,49)" stroke="rgb(49,49,49)" stroke-width="1" opacity="1" d="M 411.5 433 L 410.5 435 L 411.5 433 Z " /><path fill="rgb(49,49,49)" stroke="rgb(49,49,49)" stroke-width="1" opacity="1" d="M 270.5 435 L 269.5 437 L 270.5 435 Z " /><path fill="rgb(49,49,49)" stroke="rgb(49,49,49)" stroke-width="1" opacity="1" d="M 263.5 437 L 266 438.5 L 264.5 439 L 263.5 437 Z " /><path fill="rgb(49,49,49)" stroke="rgb(49,49,49)" stroke-width="1" opacity="1" d="M 425.5 437 Q 431.8 435.8 433 439.5 L 432.5 441 L 430.5 438 Q 424.5 439.2 425.5 437 Z " /><path fill="rgb(49,49,49)" stroke="rgb(49,49,49)" stroke-width="1" opacity="1" d="M 386.5 438 L 392 438.5 L 386.5 439 L 386.5 438 Z " /><path fill="rgb(49,49,49)" stroke="rgb(49,49,49)" stroke-width="1" opacity="1" d="M 383.5 439 L 382.5 441 L 383.5 439 Z " /><path fill="rgb(49,49,49)" stroke="rgb(49,49,49)" stroke-width="1" opacity="1" d="M 380.5 441 L 378.5 444 L 380.5 441 Z " /><path fill="rgb(49,49,49)" stroke="rgb(49,49,49)" stroke-width="1" opacity="1" d="M 400.5 441 L 403 442.5 L 401.5 442 L 400.5 441 Z " /><path fill="rgb(49,49,49)" stroke="rgb(49,49,49)" stroke-width="1" opacity="1" d="M 417.5 442 L 425.5 451 L 417.5 442 Z " /><path fill="rgb(49,49,49)" stroke="rgb(49,49,49)" stroke-width="1" opacity="1" d="M 376.5 444 L 366.5 455 L 376.5 444 Z " /><path fill="rgb(49,49,49)" stroke="rgb(49,49,49)" stroke-width="1" opacity="1" d="M 406.5 444 L 407.5 446 L 406.5 444 Z " /><path fill="rgb(49,49,49)" stroke="rgb(49,49,49)" stroke-width="1" opacity="1" d="M 410.5 447 L 420.5 458 L 410.5 447 Z " /><path fill="rgb(49,49,49)" stroke="rgb(49,49,49)" stroke-width="1" opacity="1" d="M 427.5 453 L 429.5 456 L 427.5 453 Z " /><path fill="rgb(49,49,49)" stroke="rgb(49,49,49)" stroke-width="1" opacity="1" d="M 433.5 453 L 434 455.5 L 433 455.5 L 433.5 453 Z " /><path fill="rgb(49,49,49)" stroke="rgb(49,49,49)" stroke-width="1" opacity="1" d="M 364.5 457 L 363.5 459 L 364.5 457 Z " /><path fill="rgb(49,49,49)" stroke="rgb(49,49,49)" stroke-width="1" opacity="1" d="M 432.5 457 L 433 459 L 431 458.5 L 432.5 457 Z " /><path fill="rgb(49,49,49)" stroke="rgb(49,49,49)" stroke-width="1" opacity="1" d="M 362.5 460 L 361.5 462 L 362.5 460 Z " /><path fill="rgb(49,49,49)" stroke="rgb(49,49,49)" stroke-width="1" opacity="1" d="M 422.5 460 L 424.5 463 L 422.5 460 Z " /><path fill="rgb(49,49,49)" stroke="rgb(49,49,49)" stroke-width="1" opacity="1" d="M 425.5 464 L 426.5 466 L 425.5 464 Z " /><path fill="rgb(49,49,49)" stroke="rgb(49,49,49)" stroke-width="1" opacity="1" d="M 426.5 470 L 424.5 473 L 426.5 470 Z " /><path fill="rgb(49,49,49)" stroke="rgb(49,49,49)" stroke-width="1" opacity="1" d="M 423.5 474 L 418.5 480 L 423.5 474 Z " /><path fill="rgb(49,49,49)" stroke="rgb(49,49,49)" stroke-width="1" opacity="1" d="M 355.5 475 L 356 477.5 L 355 477.5 L 355.5 475 Z " /><path fill="rgb(49,49,49)" stroke="rgb(49,49,49)" stroke-width="1" opacity="1" d="M 416.5 481 L 412.5 486 L 416.5 481 Z " /><path fill="rgb(49,49,49)" stroke="rgb(49,49,49)" stroke-width="1" opacity="1" d="M 409.5 487 L 408.5 489 L 409.5 487 Z " /><path fill="rgb(49,49,49)" stroke="rgb(49,49,49)" stroke-width="1" opacity="1" d="M 406.5 489 L 405.5 491 L 406.5 489 Z " /><path fill="rgb(49,49,49)" stroke="rgb(49,49,49)" stroke-width="1" opacity="1" d="M 403.5 491 L 402.5 493 L 400.5 494 L 401.5 492 L 403.5 491 Z " /><path fill="rgb(49,49,49)" stroke="rgb(49,49,49)" stroke-width="1" opacity="1" d="M 362.5 496 L 365 497.5 L 363.5 498 L 362.5 496 Z " /><path fill="rgb(49,49,49)" stroke="rgb(49,49,49)" stroke-width="1" opacity="1" d="M 369.5 499 L 372 499.5 L 369.5 500 L 369.5 499 Z " /><path fill="rgb(49,49,49)" stroke="rgb(49,49,49)" stroke-width="1" opacity="1" d="M 381.5 499 L 384 499.5 L 381.5 500 L 381.5 499 Z " /><path fill="rgb(0,0,0)" stroke="rgb(0,0,0)" stroke-width="1" opacity="0" d="M 0 0 L 512 0 L 512 512 L 0 512 L 0 0 Z M 249 4 L 231 14 L 225 21 L 225 230 L 227 234 L 233 239 L 273 263 L 272 266 Q 268 272 260 274 L 252 274 L 237 268 L 226 267 L 225 266 Q 200 269 189 285 L 141 258 L 132 258 L 124 262 L 39 311 L 27 320 L 27 345 L 28 347 L 47 359 L 265 484 Q 274 485 280 482 L 373 428 L 378 422 L 378 398 L 377 396 L 374 392 L 357 382 L 198 291 L 196 289 L 206 280 L 217 275 Q 222 277 224 274 L 232 275 L 251 282 Q 267 283 275 275 L 281 267 L 300 278 Q 302 277 301 280 L 273 293 L 267 300 L 267 322 L 269 327 L 287 338 L 358 378 L 369 377 L 419 348 L 422 348 L 429 353 L 419 359 Q 408 366 404 381 Q 403 396 410 404 Q 417 412 426 417 L 429 422 L 429 425 L 421 422 L 406 422 L 397 424 Q 383 429 373 437 Q 354 450 347 475 Q 345 491 352 499 Q 358 505 369 508 L 385 508 L 396 505 Q 412 498 424 487 Q 437 475 442 456 Q 444 438 436 431 L 437 427 Q 438 418 434 415 L 423 405 Q 415 399 412 389 Q 412 378 416 373 Q 424 363 438 358 L 458 368 L 464 367 L 478 359 L 485 350 L 485 145 L 478 132 L 463 121 L 269 9 L 259 4 L 249 4 Z " /><path fill="rgb(102,204,255)" stroke="rgb(102,204,255)" stroke-width="1" opacity="1" d="M 246 46 L 449 162 L 448.5 335 L 246 217.5 L 246 46 Z " /><path fill="rgb(170,170,170)" stroke="rgb(170,170,170)" stroke-width="1" opacity="1" d="M 133.5 266 L 138.5 266 L 144.5 269 L 370 399 L 367.5 403 L 275.5 456 Q 273.2 458.7 267.5 458 L 35 323.5 L 42.5 318 L 133.5 266 Z M 137 274 L 57 320 Q 53 321 54 326 L 74 338 L 265 448 L 348 401 L 350 398 L 349 394 L 145 276 Q 142 273 137 274 Z " /><path fill="rgb(170,170,170)" stroke="rgb(170,170,170)" stroke-width="1" opacity="1" d="M 318 289 L 347 305.5 L 347 318.5 L 345.5 319 L 318 302.5 L 318 289 Z " /><path fill="rgb(170,170,170)" stroke="rgb(170,170,170)" stroke-width="1" opacity="1" d="M 355.5 310 L 362 314.5 L 355 318 L 355.5 310 Z " /><path fill="rgb(170,170,170)" stroke="rgb(170,170,170)" stroke-width="1" opacity="1" d="M 35 334 L 40.5 336 L 262.5 465 Q 265.4 467.6 271.5 467 L 369.5 411 L 370 419.5 L 278.5 473 L 272.5 476 L 266.5 476 L 40.5 346 L 35 341.5 L 35 334 Z " /><path fill="rgb(58,58,58)" stroke="rgb(58,58,58)" stroke-width="1" opacity="1" d="M 251.5 12 L 258.5 13 L 452.5 125 L 472 137.5 L 477 147.5 L 477 346.5 L 472.5 352 L 471 351.5 L 471 155.5 Q 468.6 145.4 461.5 140 L 246 15.5 L 251.5 12 Z " /><path fill="rgb(58,58,58)" stroke="rgb(58,58,58)" stroke-width="1" opacity="1" d="M 134.5 265 L 138 265.5 L 134.5 266 L 134.5 265 Z " /><path fill="rgb(58,58,58)" stroke="rgb(58,58,58)" stroke-width="1" opacity="1" d="M 137.5 283 L 147 287 Q 148.1 289.7 145.5 289 L 135.5 294 L 128 289.5 L 137.5 283 Z " /><path fill="rgb(58,58,58)" stroke="rgb(58,58,58)" stroke-width="1" opacity="1" d="M 308.5 285 L 309 306.5 L 312.5 310 L 351.5 331 L 369.5 320 L 372.5 320 L 393 332.5 L 364.5 349 L 358.5 349 L 276 301.5 L 308.5 285 Z " /><path fill="rgb(58,58,58)" stroke="rgb(58,58,58)" stroke-width="1" opacity="1" d="M 318.5 288 L 318 289.5 L 317.5 302 L 317 289.5 L 318.5 288 Z " /><path fill="rgb(58,58,58)" stroke="rgb(58,58,58)" stroke-width="1" opacity="1" d="M 156.5 293 L 168 300.5 L 158.5 306 L 155.5 306 L 146 299.5 L 156.5 293 Z " /><path fill="rgb(58,58,58)" stroke="rgb(58,58,58)" stroke-width="1" opacity="1" d="M 118.5 294 L 127 299.5 L 116.5 306 L 108 300.5 L 118.5 294 Z " /><path fill="rgb(58,58,58)" stroke="rgb(58,58,58)" stroke-width="1" opacity="1" d="M 135.5 305 L 148 311.5 L 137.5 318 L 126 311.5 L 135.5 305 Z " /><path fill="rgb(58,58,58)" stroke="rgb(58,58,58)" stroke-width="1" opacity="1" d="M 177.5 305 L 189 312.5 L 179.5 318 L 176.5 318 L 166 311.5 L 177.5 305 Z " /><path fill="rgb(58,58,58)" stroke="rgb(58,58,58)" stroke-width="1" opacity="1" d="M 97.5 306 L 107 310 Q 108.1 312.7 105.5 312 L 95.5 318 L 87 312.5 L 97.5 306 Z " /><path fill="rgb(58,58,58)" stroke="rgb(58,58,58)" stroke-width="1" opacity="1" d="M 361.5 313 L 362.5 315 L 361.5 313 Z " /><path fill="rgb(58,58,58)" stroke="rgb(58,58,58)" stroke-width="1" opacity="1" d="M 116.5 316 L 128 323.5 L 116.5 330 L 105 323.5 L 116.5 316 Z " /><path fill="rgb(58,58,58)" stroke="rgb(58,58,58)" stroke-width="1" opacity="1" d="M 156.5 317 L 169 323.5 L 157.5 330 L 147 324 Q 145.9 321.3 148.5 322 L 156.5 317 Z " /><path fill="rgb(58,58,58)" stroke="rgb(58,58,58)" stroke-width="1" opacity="1" d="M 198.5 317 L 210 324.5 L 200.5 330 L 197.5 330 L 187 323.5 L 198.5 317 Z " /><path fill="rgb(58,58,58)" stroke="rgb(58,58,58)" stroke-width="1" opacity="1" d="M 77.5 318 L 86 322 Q 87.1 324.7 84.5 324 L 77.5 329 L 75.5 329 L 68 325 Q 66.9 322.3 69.5 323 L 77.5 318 Z " /><path fill="rgb(58,58,58)" stroke="rgb(58,58,58)" stroke-width="1" opacity="1" d="M 95.5 328 L 107 334 Q 108.1 336.7 105.5 336 L 96.5 341 L 85 334.5 L 95.5 328 Z " /><path fill="rgb(58,58,58)" stroke="rgb(58,58,58)" stroke-width="1" opacity="1" d="M 137.5 328 L 149 335.5 L 137.5 342 L 126 335.5 L 137.5 328 Z " /><path fill="rgb(58,58,58)" stroke="rgb(58,58,58)" stroke-width="1" opacity="1" d="M 177.5 329 L 190 335.5 L 178.5 342 L 168 336 Q 166.9 333.3 169.5 334 L 177.5 329 Z " /><path fill="rgb(58,58,58)" stroke="rgb(58,58,58)" stroke-width="1" opacity="1" d="M 217.5 330 L 220.5 330 L 231 336.5 L 221.5 342 L 218.5 342 L 208 335.5 L 217.5 330 Z " /><path fill="rgb(58,58,58)" stroke="rgb(58,58,58)" stroke-width="1" opacity="1" d="M 34 333 L 36 333.5 L 34.5 341 L 34 333 Z " /><path fill="rgb(58,58,58)" stroke="rgb(58,58,58)" stroke-width="1" opacity="1" d="M 46.5 339 L 47.5 341 L 46.5 339 Z " /><path fill="rgb(58,58,58)" stroke="rgb(58,58,58)" stroke-width="1" opacity="1" d="M 116.5 340 L 233 407.5 L 223.5 413 L 220.5 413 L 106 346.5 L 116.5 340 Z " /><path fill="rgb(58,58,58)" stroke="rgb(58,58,58)" stroke-width="1" opacity="1" d="M 158.5 340 L 170 347.5 L 157.5 354 L 147 347.5 L 158.5 340 Z " /><path fill="rgb(58,58,58)" stroke="rgb(58,58,58)" stroke-width="1" opacity="1" d="M 198.5 341 L 210 347.5 Q 210.8 349.8 208.5 349 L 199.5 354 L 189 347.5 Q 188.3 345.3 190.5 346 L 198.5 341 Z " /><path fill="rgb(58,58,58)" stroke="rgb(58,58,58)" stroke-width="1" opacity="1" d="M 35.5 342 L 36.5 344 L 35.5 342 Z " /><path fill="rgb(58,58,58)" stroke="rgb(58,58,58)" stroke-width="1" opacity="1" d="M 238.5 342 L 241.5 342 L 251 347 L 249.5 350 L 240.5 355 L 229 347.5 L 238.5 342 Z " /><path fill="rgb(58,58,58)" stroke="rgb(58,58,58)" stroke-width="1" opacity="1" d="M 177.5 353 L 180.5 353 L 191 359.5 L 178.5 366 L 168 359.5 L 177.5 353 Z " /><path fill="rgb(58,58,58)" stroke="rgb(58,58,58)" stroke-width="1" opacity="1" d="M 219.5 353 L 231 359 Q 232.1 361.7 229.5 361 L 220.5 366 L 209 359.5 L 219.5 353 Z " /><path fill="rgb(58,58,58)" stroke="rgb(58,58,58)" stroke-width="1" opacity="1" d="M 259.5 354 L 262.5 354 L 272 360.5 L 261.5 367 L 250 359.5 L 259.5 354 Z " /><path fill="rgb(58,58,58)" stroke="rgb(58,58,58)" stroke-width="1" opacity="1" d="M 198.5 365 L 201.5 365 L 212 371.5 L 199.5 378 L 189 371.5 Q 188.3 369.3 190.5 370 L 198.5 365 Z " /><path fill="rgb(58,58,58)" stroke="rgb(58,58,58)" stroke-width="1" opacity="1" d="M 240.5 365 L 252 371 Q 253.1 373.7 250.5 373 L 241.5 378 L 230 371.5 L 240.5 365 Z " /><path fill="rgb(58,58,58)" stroke="rgb(58,58,58)" stroke-width="1" opacity="1" d="M 280.5 366 Q 288.3 367.7 293 372.5 L 282.5 379 L 271 373 Q 269.9 370.3 272.5 371 L 280.5 366 Z " /><path fill="rgb(58,58,58)" stroke="rgb(58,58,58)" stroke-width="1" opacity="1" d="M 85.5 371 L 86.5 373 L 85.5 371 Z " /><path fill="rgb(58,58,58)" stroke="rgb(58,58,58)" stroke-width="1" opacity="1" d="M 219.5 377 L 222.5 377 L 233 383.5 L 220.5 390 L 209 383.5 L 219.5 377 Z " /><path fill="rgb(58,58,58)" stroke="rgb(58,58,58)" stroke-width="1" opacity="1" d="M 261.5 377 L 273 383 Q 274.1 385.7 271.5 385 L 261.5 390 L 251 383.5 L 261.5 377 Z " /><path fill="rgb(58,58,58)" stroke="rgb(58,58,58)" stroke-width="1" opacity="1" d="M 301.5 378 Q 309.3 379.7 314 384.5 L 303.5 391 L 292 385 Q 290.9 382.3 293.5 383 L 301.5 378 Z " /><path fill="rgb(58,58,58)" stroke="rgb(58,58,58)" stroke-width="1" opacity="1" d="M 117.5 380 L 118.5 382 L 117.5 380 Z " /><path fill="rgb(58,58,58)" stroke="rgb(58,58,58)" stroke-width="1" opacity="1" d="M 111.5 386 L 112.5 388 L 111.5 386 Z " /><path fill="rgb(58,58,58)" stroke="rgb(58,58,58)" stroke-width="1" opacity="1" d="M 240.5 389 L 243.5 389 L 254 395.5 L 241.5 402 L 230 395.5 L 240.5 389 Z " /><path fill="rgb(58,58,58)" stroke="rgb(58,58,58)" stroke-width="1" opacity="1" d="M 282.5 389 L 293 395.5 L 291.5 398 L 282.5 402 L 272 395.5 L 282.5 389 Z " /><path fill="rgb(58,58,58)" stroke="rgb(58,58,58)" stroke-width="1" opacity="1" d="M 322.5 390 L 326.5 391 L 336 397.5 L 325.5 404 L 313 397 Q 311.9 394.3 314.5 395 L 322.5 390 Z " /><path fill="rgb(58,58,58)" stroke="rgb(58,58,58)" stroke-width="1" opacity="1" d="M 143.5 395 L 144.5 397 L 143.5 395 Z " /><path fill="rgb(58,58,58)" stroke="rgb(58,58,58)" stroke-width="1" opacity="1" d="M 261.5 401 Q 269.3 402.7 274 407.5 Q 269.3 412.3 261.5 414 L 251 407.5 L 261.5 401 Z " /><path fill="rgb(58,58,58)" stroke="rgb(58,58,58)" stroke-width="1" opacity="1" d="M 303.5 401 L 316 408.5 L 305.5 415 L 293 407.5 L 303.5 401 Z " /><path fill="rgb(58,58,58)" stroke="rgb(58,58,58)" stroke-width="1" opacity="1" d="M 240.5 413 L 243.5 413 L 254 419.5 L 244.5 425 L 241.5 425 L 231 418.5 L 240.5 413 Z " /><path fill="rgb(58,58,58)" stroke="rgb(58,58,58)" stroke-width="1" opacity="1" d="M 282.5 413 Q 291.1 414.9 296 420.5 L 284.5 427 L 272 419.5 L 282.5 413 Z " /><path fill="rgb(58,58,58)" stroke="rgb(58,58,58)" stroke-width="1" opacity="1" d="M 363.5 423 L 362.5 425 L 363.5 423 Z " /><path fill="rgb(58,58,58)" stroke="rgb(58,58,58)" stroke-width="1" opacity="1" d="M 261.5 425 Q 270.3 427.3 276 432.5 L 264.5 438 L 252 430.5 L 261.5 425 Z " /><path fill="rgb(58,58,58)" stroke="rgb(58,58,58)" stroke-width="1" opacity="1" d="M 182.5 427 L 183.5 429 L 182.5 427 Z " /><path fill="rgb(58,58,58)" stroke="rgb(58,58,58)" stroke-width="1" opacity="1" d="M 408.5 430 L 418 430.5 L 409.5 435 L 406.5 435 L 402 432.5 L 408.5 430 Z " /><path fill="rgb(58,58,58)" stroke="rgb(58,58,58)" stroke-width="1" opacity="1" d="M 214.5 436 L 215.5 438 L 214.5 436 Z " /><path fill="rgb(58,58,58)" stroke="rgb(58,58,58)" stroke-width="1" opacity="1" d="M 423.5 438 Q 430.3 436.3 432 439.5 Q 435.1 443.9 434 452.5 L 431.5 458 L 417.5 442 L 416 441.5 L 423.5 438 Z " /><path fill="rgb(58,58,58)" stroke="rgb(58,58,58)" stroke-width="1" opacity="1" d="M 384.5 439 L 394.5 439 L 405.5 444 L 422 459.5 L 428 467.5 L 418 481 L 397.5 495 Q 387.7 500.2 372.5 500 L 361.5 496 L 358 492.5 L 355 484.5 L 355 478.5 Q 360.6 455.6 377.5 444 L 384.5 439 Z " /><path fill="rgb(58,58,58)" stroke="rgb(58,58,58)" stroke-width="1" opacity="1" d="M 286.5 458 L 285.5 460 L 286.5 458 Z " /><path fill="rgb(58,58,58)" stroke="rgb(58,58,58)" stroke-width="1" opacity="1" d="M 292.5 464 L 291.5 466 L 292.5 464 Z " /><path fill="rgb(58,58,58)" stroke="rgb(58,58,58)" stroke-width="1" opacity="1" d="M 267.5 466 L 272 466.5 L 267.5 467 L 267.5 466 Z " /><path fill="rgb(58,58,58)" stroke="rgb(58,58,58)" stroke-width="1" opacity="1" d="M 268.5 476 L 271 476.5 L 268.5 477 L 268.5 476 Z " /><path fill="rgb(1,1,1)" stroke="rgb(1,1,1)" stroke-width="1" opacity="0.9921568627450981" d="M 248.5 4 L 258.5 4 L 268.5 9 L 462.5 121 L 478 131.5 L 485 144.5 L 485 349.5 L 477.5 359 L 463.5 367 L 457.5 368 L 437.5 358 Q 424 362.5 416 372.5 Q 411.6 378.1 412 388.5 Q 414.6 399.4 422.5 405 L 434 414.5 Q 438 418 437 426.5 L 436 430.5 Q 444.5 437.5 442 455.5 Q 436.5 475 423.5 487 Q 412 498.5 395.5 505 L 384.5 508 L 368.5 508 Q 358 505.5 352 498.5 Q 345 491 347 474.5 Q 354.2 450.2 372.5 437 Q 383 429 396.5 424 L 405.5 422 L 420.5 422 L 429 425 L 429 421.5 L 426 417 Q 416.8 412 410 403.5 Q 403.2 395.8 404 380.5 Q 407.5 366 418.5 359 L 429 352.5 L 421.5 348 L 418.5 348 L 368.5 377 L 357.5 378 L 286.5 338 L 269 326.5 L 267 321.5 L 267 299.5 L 272.5 293 L 301 280 Q 302.1 277.3 299.5 278 L 280.5 267 L 274.5 275 Q 267.3 283.3 250.5 282 L 231.5 275 L 223.5 274 Q 222 276.5 216.5 275 L 205.5 280 L 196 288.5 L 197.5 291 L 356.5 382 L 373.5 392 L 377 395.5 L 378 397.5 L 378 421.5 L 372.5 428 L 279.5 482 Q 274.4 485.4 264.5 484 L 46.5 359 L 28 346.5 L 27 344.5 L 27 319.5 L 38.5 311 L 123.5 262 L 131.5 258 L 140.5 258 L 188.5 285 Q 199.8 268.8 224.5 266 L 225.5 267 L 236.5 268 L 251.5 274 L 259.5 274 Q 267.9 271.9 272 265.5 L 273 262.5 L 232.5 239 L 227 233.5 L 225 229.5 L 225 20.5 L 230.5 14 L 248.5 4 Z M 250 12 L 245 16 L 461 140 Q 467 145 470 154 L 470 353 L 474 352 L 476 350 L 478 344 L 478 152 L 475 141 Q 469 133 461 129 L 260 13 Q 256 11 250 12 Z M 237 20 L 233 23 L 233 228 L 234 230 L 240 234 L 309 274 L 456 359 L 460 360 L 463 356 L 463 160 L 460 151 L 449 142 L 237 20 Z M 135 265 L 34 324 L 269 459 L 277 456 L 371 401 L 359 392 L 165 280 L 138 265 L 135 265 Z M 309 284 L 278 300 Q 275 299 276 302 L 360 350 L 367 349 L 394 333 L 372 319 L 353 330 L 350 330 L 344 327 L 314 310 L 310 307 L 310 285 L 309 284 Z M 317 288 L 317 303 L 346 319 L 347 319 L 347 304 L 317 288 Z M 354 310 L 354 319 L 357 319 L 363 315 Q 360 310 354 310 Z M 275 311 Q 274 319 276 323 L 359 370 L 365 370 L 371 367 L 412 343 L 403 337 L 374 354 L 364 358 Q 356 358 352 355 L 275 311 Z M 34 333 L 34 342 L 52 353 L 268 477 L 275 476 L 370 421 L 371 418 Q 372 411 370 410 L 273 466 L 264 465 L 37 333 L 34 333 Z M 406 430 L 400 433 L 408 436 L 419 431 L 406 430 Z M 426 437 L 416 440 L 416 442 L 431 458 Q 430 460 433 459 L 434 456 Q 436 445 433 440 Q 432 436 426 437 Z M 387 438 L 377 444 Q 361 455 355 476 L 355 487 L 359 495 L 370 500 L 384 500 L 392 498 Q 404 494 413 486 L 428 469 L 421 458 Q 413 447 402 441 L 392 438 L 387 438 Z " /><path fill="rgb(1,1,1)" stroke="rgb(1,1,1)" stroke-width="1" opacity="0.9921568627450981" d="M 239.5 34 L 245.5 35 L 457 157 L 458 159.5 L 458 344.5 Q 457.3 347.8 452.5 347 L 245.5 228 L 237 221.5 L 237 36.5 L 239.5 34 Z M 246 44 L 245 219 L 449 336 L 450 336 L 450 163 L 246 44 Z " /><path fill="rgb(1,1,1)" stroke="rgb(1,1,1)" stroke-width="1" opacity="0.9921568627450981" d="M 137.5 274 L 143.5 276 L 164.5 288 L 349 395.5 Q 349.8 400.3 346.5 401 L 267.5 447 L 263.5 447 L 60.5 330 L 55 325.5 Q 54.3 320.8 57.5 320 L 137.5 274 Z M 139 282 L 127 290 L 136 295 L 147 289 Q 149 290 148 287 L 139 282 Z M 156 293 L 145 300 L 157 307 L 169 301 L 160 294 L 156 293 Z M 118 294 L 107 301 L 116 306 Q 123 304 128 300 L 118 294 Z M 137 304 L 127 310 Q 124 309 125 312 L 137 318 Q 144 316 149 312 L 137 304 Z M 99 305 L 86 313 L 95 318 L 98 318 L 107 312 Q 109 313 108 310 L 99 305 Z M 177 305 L 166 312 L 178 319 L 190 313 L 181 306 L 177 305 Z M 116 316 L 104 324 L 116 330 L 119 330 L 129 324 Q 124 318 116 316 Z M 158 316 L 148 322 Q 145 321 146 324 L 157 330 L 160 330 L 170 324 L 158 316 Z M 78 317 L 69 323 Q 66 322 67 325 L 77 330 L 86 324 Q 88 325 87 322 L 78 317 Z M 198 317 L 189 322 L 187 325 L 199 331 L 211 325 L 200 317 L 198 317 Z M 95 328 L 85 335 L 97 342 L 107 336 Q 109 337 108 334 L 95 328 Z M 137 328 L 125 336 L 137 342 L 150 336 L 141 329 L 137 328 Z M 177 329 L 169 334 Q 166 333 167 336 L 178 342 L 181 342 L 191 336 L 180 329 L 177 329 Z M 219 329 L 207 336 L 219 343 L 230 338 L 231 335 L 219 329 Z M 116 340 L 105 347 L 222 414 L 233 408 L 129 346 L 116 340 Z M 158 340 L 146 348 L 157 354 L 160 354 L 171 348 L 160 340 L 158 340 Z M 198 341 L 190 346 Q 187 345 188 348 L 199 354 L 202 354 L 210 349 Q 212 350 211 348 L 201 341 L 198 341 Z M 240 341 L 228 348 L 240 355 L 251 350 L 252 347 L 240 341 Z M 179 352 L 169 358 Q 166 357 167 360 L 180 367 L 192 360 L 179 352 Z M 219 353 L 208 360 L 221 367 L 231 361 Q 233 362 232 359 L 222 353 L 219 353 Z M 261 353 L 249 360 L 261 367 Q 268 365 273 361 L 261 353 Z M 200 364 L 190 370 Q 187 369 188 372 L 201 379 L 211 373 L 212 370 L 200 364 Z M 240 365 L 229 372 L 242 379 L 252 373 Q 254 374 253 371 L 243 365 L 240 365 Z M 282 365 L 272 371 Q 269 370 270 373 L 282 379 L 286 378 L 294 373 L 282 365 Z M 221 376 L 211 382 Q 208 381 209 384 L 220 390 L 223 390 L 233 384 L 221 376 Z M 261 377 L 250 384 L 263 391 L 273 385 Q 275 386 274 383 L 261 377 Z M 302 377 L 293 383 Q 290 382 291 385 L 303 391 L 307 390 L 315 385 L 304 377 L 302 377 Z M 242 388 L 229 396 L 242 403 L 254 396 L 242 388 Z M 282 389 L 271 396 L 284 403 L 294 397 Q 296 398 295 395 L 282 389 Z M 323 389 L 314 395 Q 311 394 312 397 L 325 404 L 329 403 L 337 398 L 323 389 Z M 263 400 L 250 408 L 263 415 L 275 408 L 263 400 Z M 303 401 L 292 408 L 306 416 L 317 409 L 303 401 Z M 242 412 L 233 417 L 231 420 L 243 426 L 254 420 L 242 412 Z M 284 412 L 271 420 L 284 427 L 287 427 L 297 421 L 284 412 Z M 263 424 L 254 429 L 252 432 L 265 439 L 275 434 L 276 431 L 263 424 Z " /></svg>