<svg width="512" height="512" version="1.1" xmlns="http://www.w3.org/2000/svg" desc="Created with imagetracer.js version 1.2.6" ><path fill="rgb(194,91,87)" stroke="rgb(194,91,87)" stroke-width="1" opacity="1" d="M 40 152 L 471.5 152 L 472 152.5 L 472 168 L 40.5 168 L 40 167.5 L 40 152 Z " /><path fill="rgb(194,91,87)" stroke="rgb(194,91,87)" stroke-width="1" opacity="1" d="M 376.5 197 L 373.5 201 L 376.5 197 Z " /><path fill="rgb(194,91,87)" stroke="rgb(194,91,87)" stroke-width="1" opacity="1" d="M 407.5 197 L 410.5 201 L 407.5 197 Z " /><path fill="rgb(194,91,87)" stroke="rgb(194,91,87)" stroke-width="1" opacity="1" d="M 432.5 197 L 429.5 201 L 432.5 197 Z " /><path fill="rgb(194,91,87)" stroke="rgb(194,91,87)" stroke-width="1" opacity="1" d="M 463.5 197 L 466.5 201 L 463.5 197 Z " /><path fill="rgb(194,91,87)" stroke="rgb(194,91,87)" stroke-width="1" opacity="1" d="M 389.5 208 Q 397.1 206.9 399 211.5 L 400 218.5 L 396.5 223 L 389.5 224 L 385 220.5 L 384 213.5 L 387.5 209 L 389.5 208 Z " /><path fill="rgb(194,91,87)" stroke="rgb(194,91,87)" stroke-width="1" opacity="1" d="M 445.5 208 Q 453.1 206.9 455 211.5 L 456 218.5 L 452.5 223 L 445.5 224 L 441 220.5 L 440 213.5 L 443.5 209 L 445.5 208 Z " /><path fill="rgb(194,91,87)" stroke="rgb(194,91,87)" stroke-width="1" opacity="1" d="M 373.5 231 L 376.5 235 L 373.5 231 Z " /><path fill="rgb(194,91,87)" stroke="rgb(194,91,87)" stroke-width="1" opacity="1" d="M 410.5 231 L 407.5 235 L 410.5 231 Z " /><path fill="rgb(194,91,87)" stroke="rgb(194,91,87)" stroke-width="1" opacity="1" d="M 429.5 231 L 432.5 235 L 429.5 231 Z " /><path fill="rgb(194,91,87)" stroke="rgb(194,91,87)" stroke-width="1" opacity="1" d="M 466.5 231 L 463.5 235 L 466.5 231 Z " /><path fill="rgb(194,91,87)" stroke="rgb(194,91,87)" stroke-width="1" opacity="1" d="M 126.5 364 L 127 367.5 L 126 367.5 L 126.5 364 Z " /><path fill="rgb(194,91,87)" stroke="rgb(194,91,87)" stroke-width="1" opacity="1" d="M 385.5 364 L 386 367.5 L 385 367.5 L 385.5 364 Z " /><path fill="rgb(194,91,87)" stroke="rgb(194,91,87)" stroke-width="1" opacity="1" d="M 125.5 372 L 126 375.5 L 125 375.5 L 125.5 372 Z " /><path fill="rgb(194,91,87)" stroke="rgb(194,91,87)" stroke-width="1" opacity="1" d="M 386.5 372 L 387 375.5 L 386 375.5 L 386.5 372 Z " /><path fill="rgb(194,91,87)" stroke="rgb(194,91,87)" stroke-width="1" opacity="1" d="M 124.5 381 L 125 384.5 L 124 384.5 L 124.5 381 Z " /><path fill="rgb(194,91,87)" stroke="rgb(194,91,87)" stroke-width="1" opacity="1" d="M 387.5 381 L 388 384.5 L 387 384.5 L 387.5 381 Z " /><path fill="rgb(194,91,87)" stroke="rgb(194,91,87)" stroke-width="1" opacity="1" d="M 123.5 389 L 124 392.5 L 123 392.5 L 123.5 389 Z " /><path fill="rgb(194,91,87)" stroke="rgb(194,91,87)" stroke-width="1" opacity="1" d="M 388.5 389 L 389 392.5 L 388 392.5 L 388.5 389 Z " /><path fill="rgb(194,91,87)" stroke="rgb(194,91,87)" stroke-width="1" opacity="1" d="M 122.5 398 L 123 401.5 L 122 401.5 L 122.5 398 Z " /><path fill="rgb(194,91,87)" stroke="rgb(194,91,87)" stroke-width="1" opacity="1" d="M 389.5 398 L 390 401.5 L 389 401.5 L 389.5 398 Z " /><path fill="rgb(194,91,87)" stroke="rgb(194,91,87)" stroke-width="1" opacity="1" d="M 121.5 406 L 122 409.5 L 121 409.5 L 121.5 406 Z " /><path fill="rgb(194,91,87)" stroke="rgb(194,91,87)" stroke-width="1" opacity="1" d="M 390.5 406 L 391 409.5 L 390 409.5 L 390.5 406 Z " /><path fill="rgb(194,91,87)" stroke="rgb(194,91,87)" stroke-width="1" opacity="1" d="M 120.5 415 L 121 418.5 L 120 418.5 L 120.5 415 Z " /><path fill="rgb(194,91,87)" stroke="rgb(194,91,87)" stroke-width="1" opacity="1" d="M 391.5 415 L 392 418.5 L 391 418.5 L 391.5 415 Z " /><path fill="rgb(194,91,87)" stroke="rgb(194,91,87)" stroke-width="1" opacity="1" d="M 119.5 423 L 120 426.5 L 119 426.5 L 119.5 423 Z " /><path fill="rgb(194,91,87)" stroke="rgb(194,91,87)" stroke-width="1" opacity="1" d="M 392.5 423 L 393 426.5 L 392 426.5 L 392.5 423 Z " /><path fill="rgb(194,91,87)" stroke="rgb(194,91,87)" stroke-width="1" opacity="1" d="M 118.5 432 L 119 435.5 L 118 435.5 L 118.5 432 Z " /><path fill="rgb(194,91,87)" stroke="rgb(194,91,87)" stroke-width="1" opacity="1" d="M 393.5 432 L 394 435.5 L 393 435.5 L 393.5 432 Z " /><path fill="rgb(194,91,87)" stroke="rgb(194,91,87)" stroke-width="1" opacity="1" d="M 117.5 440 L 118 443.5 L 117 443.5 L 117.5 440 Z " /><path fill="rgb(194,91,87)" stroke="rgb(194,91,87)" stroke-width="1" opacity="1" d="M 394.5 440 L 395 443.5 L 394 443.5 L 394.5 440 Z " /><path fill="rgb(194,91,87)" stroke="rgb(194,91,87)" stroke-width="1" opacity="1" d="M 116.5 449 L 117 452.5 L 116 452.5 L 116.5 449 Z " /><path fill="rgb(194,91,87)" stroke="rgb(194,91,87)" stroke-width="1" opacity="1" d="M 395.5 449 L 396 452.5 L 395 452.5 L 395.5 449 Z " /><path fill="rgb(194,91,87)" stroke="rgb(194,91,87)" stroke-width="1" opacity="1" d="M 115.5 457 L 116 460.5 L 115 460.5 L 115.5 457 Z " /><path fill="rgb(194,91,87)" stroke="rgb(194,91,87)" stroke-width="1" opacity="1" d="M 396.5 457 L 397 460.5 L 396 460.5 L 396.5 457 Z " /><path fill="rgb(194,91,87)" stroke="rgb(194,91,87)" stroke-width="1" opacity="1" d="M 114.5 466 L 115 469.5 L 114 469.5 L 114.5 466 Z " /><path fill="rgb(194,91,87)" stroke="rgb(194,91,87)" stroke-width="1" opacity="1" d="M 397.5 466 L 398 469.5 L 397 469.5 L 397.5 466 Z " /><path fill="rgb(194,91,87)" stroke="rgb(194,91,87)" stroke-width="1" opacity="1" d="M 113.5 474 L 114 477.5 L 113 477.5 L 113.5 474 Z " /><path fill="rgb(194,91,87)" stroke="rgb(194,91,87)" stroke-width="1" opacity="1" d="M 398.5 474 L 399 477.5 L 398 477.5 L 398.5 474 Z " /><path fill="rgb(246,215,118)" stroke="rgb(246,215,118)" stroke-width="1" opacity="1" d="M 216 32 L 439.5 32 L 440 32.5 L 440 104 L 216.5 104 L 216 103.5 L 216 32 Z M 325 48 Q 318 50 320 60 L 325 64 L 420 64 Q 426 62 424 53 L 420 48 L 325 48 Z M 237 80 Q 230 82 232 92 L 237 96 L 420 96 Q 426 94 424 85 L 420 80 L 237 80 Z " /><path fill="rgb(246,215,118)" stroke="rgb(246,215,118)" stroke-width="1" opacity="1" d="M 366.5 184 L 473.5 184 L 479 187.5 L 480 190.5 L 480 241.5 L 476.5 247 L 473.5 248 L 366.5 248 L 361 244.5 L 360 241.5 L 360 190.5 L 363.5 185 L 366.5 184 Z M 387 192 L 377 197 Q 371 202 368 211 Q 366 225 373 232 Q 378 237 387 240 Q 401 242 408 235 Q 413 230 416 222 Q 418 207 411 201 Q 405 190 387 192 Z M 443 192 L 433 197 Q 427 202 424 211 Q 422 225 429 232 Q 434 237 443 240 Q 457 242 464 235 Q 469 230 472 222 Q 474 207 467 201 Q 461 190 443 192 Z " /><path fill="rgb(246,215,118)" stroke="rgb(246,215,118)" stroke-width="1" opacity="1" d="M 64 216 L 80 216 L 80 232 L 64 232 L 64 216 Z " /><path fill="rgb(246,215,118)" stroke="rgb(246,215,118)" stroke-width="1" opacity="1" d="M 120 216 L 136 216 L 136 232 L 120 232 L 120 216 Z " /><path fill="rgb(246,215,118)" stroke="rgb(246,215,118)" stroke-width="1" opacity="1" d="M 200 216 L 312 216 L 312 280 L 200 280 L 200 216 Z " /><path fill="rgb(246,215,118)" stroke="rgb(246,215,118)" stroke-width="1" opacity="1" d="M 127 360 L 384.5 360 L 385 360.5 L 385 367.5 L 387 376.5 L 387 384.5 L 389 393.5 L 389 401.5 L 391 410.5 L 391 418.5 L 393 427.5 L 393 435.5 L 395 444.5 L 398 477.5 L 399 480 L 113.5 480 L 113 478.5 L 115 469.5 L 115 461.5 L 117 452.5 L 117 444.5 L 119 435.5 L 119 427.5 L 121 418.5 L 121 410.5 L 123 401.5 L 123 393.5 L 124 392.5 L 127 360 Z M 149 376 Q 142 378 144 388 L 149 392 L 364 392 Q 370 390 368 381 L 364 376 L 149 376 Z M 141 408 Q 134 410 136 420 L 141 424 L 372 424 Q 378 422 376 413 L 372 408 L 141 408 Z M 133 440 Q 126 442 128 452 L 133 456 L 380 456 Q 386 454 384 445 L 380 440 L 133 440 Z " /><path fill="rgb(0,0,0)" stroke="rgb(0,0,0)" stroke-width="1" opacity="0" d="M 0 0 L 512 0 L 512 512 L 0 512 L 0 0 Z M 206 16 L 204 17 L 200 22 L 200 104 L 200 104 L 182 104 L 175 92 L 171 88 L 38 88 L 36 89 L 32 94 L 32 136 L 28 137 L 24 142 L 24 174 Q 18 178 16 187 L 16 374 L 20 383 Q 25 390 35 392 L 107 392 L 103 431 L 102 432 L 101 448 L 100 449 L 99 465 L 98 466 L 98 474 L 96 483 Q 95 489 97 493 L 102 496 L 411 496 L 413 495 L 416 491 L 416 483 L 414 474 L 414 466 L 413 465 L 412 449 L 411 448 L 410 432 L 409 431 L 405 392 L 478 392 L 487 388 Q 494 383 496 374 L 496 187 Q 494 178 488 174 L 488 142 L 487 140 Q 485 136 480 136 L 480 110 L 479 108 L 475 104 L 456 104 L 456 22 L 455 20 L 451 16 L 206 16 Z " /><path fill="rgb(0,0,0)" stroke="rgb(0,0,0)" stroke-width="1" opacity="0.7803921568627451" d="M 203.5 17 L 201.5 20 L 203.5 17 Z " /><path fill="rgb(0,0,0)" stroke="rgb(0,0,0)" stroke-width="1" opacity="0.7803921568627451" d="M 452.5 17 L 454.5 20 L 452.5 17 Z " /><path fill="rgb(0,0,0)" stroke="rgb(0,0,0)" stroke-width="1" opacity="0.7803921568627451" d="M 35.5 89 L 33.5 92 L 35.5 89 Z " /><path fill="rgb(0,0,0)" stroke="rgb(0,0,0)" stroke-width="1" opacity="0.7803921568627451" d="M 172.5 89 L 174.5 92 L 172.5 89 Z " /><path fill="rgb(0,0,0)" stroke="rgb(0,0,0)" stroke-width="1" opacity="0.7803921568627451" d="M 476.5 105 L 478.5 108 L 476.5 105 Z " /><path fill="rgb(0,0,0)" stroke="rgb(0,0,0)" stroke-width="1" opacity="0.7803921568627451" d="M 27.5 137 L 25.5 140 L 27.5 137 Z " /><path fill="rgb(0,0,0)" stroke="rgb(0,0,0)" stroke-width="1" opacity="0.7803921568627451" d="M 484.5 137 L 486.5 140 L 484.5 137 Z " /><path fill="rgb(0,0,0)" stroke="rgb(0,0,0)" stroke-width="1" opacity="0.7803921568627451" d="M 23.5 174 L 20.5 178 L 23.5 174 Z " /><path fill="rgb(0,0,0)" stroke="rgb(0,0,0)" stroke-width="1" opacity="0.7803921568627451" d="M 488.5 174 L 491.5 178 L 488.5 174 Z " /><path fill="rgb(0,0,0)" stroke="rgb(0,0,0)" stroke-width="1" opacity="0.7803921568627451" d="M 19.5 179 L 18.5 181 L 19.5 179 Z " /><path fill="rgb(0,0,0)" stroke="rgb(0,0,0)" stroke-width="1" opacity="0.7803921568627451" d="M 492.5 179 L 493.5 181 L 492.5 179 Z " /><path fill="rgb(0,0,0)" stroke="rgb(0,0,0)" stroke-width="1" opacity="0.7803921568627451" d="M 16.5 186 L 17 188.5 L 16 188.5 L 16.5 186 Z " /><path fill="rgb(0,0,0)" stroke="rgb(0,0,0)" stroke-width="1" opacity="0.7803921568627451" d="M 495.5 186 L 496 188.5 L 495 188.5 L 495.5 186 Z " /><path fill="rgb(0,0,0)" stroke="rgb(0,0,0)" stroke-width="1" opacity="0.7803921568627451" d="M 16.5 371 L 17 373.5 L 16 373.5 L 16.5 371 Z " /><path fill="rgb(0,0,0)" stroke="rgb(0,0,0)" stroke-width="1" opacity="0.7803921568627451" d="M 495.5 371 L 496 373.5 L 495 373.5 L 495.5 371 Z " /><path fill="rgb(0,0,0)" stroke="rgb(0,0,0)" stroke-width="1" opacity="0.7803921568627451" d="M 493.5 378 L 494 379.5 L 492 380.5 L 493.5 378 Z " /><path fill="rgb(0,0,0)" stroke="rgb(0,0,0)" stroke-width="1" opacity="0.7803921568627451" d="M 18.5 379 L 19.5 381 L 18.5 379 Z " /><path fill="rgb(0,0,0)" stroke="rgb(0,0,0)" stroke-width="1" opacity="0.7803921568627451" d="M 20.5 382 L 25.5 388 L 20.5 382 Z " /><path fill="rgb(0,0,0)" stroke="rgb(0,0,0)" stroke-width="1" opacity="0.7803921568627451" d="M 491.5 382 L 486.5 388 L 491.5 382 Z " /><path fill="rgb(0,0,0)" stroke="rgb(0,0,0)" stroke-width="1" opacity="0.7803921568627451" d="M 27.5 388 L 30 389.5 L 28.5 390 L 27.5 388 Z " /><path fill="rgb(0,0,0)" stroke="rgb(0,0,0)" stroke-width="1" opacity="0.7803921568627451" d="M 484.5 388 L 483.5 390 L 482 389.5 L 484.5 388 Z " /><path fill="rgb(0,0,0)" stroke="rgb(0,0,0)" stroke-width="1" opacity="0.7803921568627451" d="M 34.5 391 L 37 391.5 L 34.5 392 L 34.5 391 Z " /><path fill="rgb(0,0,0)" stroke="rgb(0,0,0)" stroke-width="1" opacity="0.7803921568627451" d="M 475.5 391 L 478 391.5 L 475.5 392 L 475.5 391 Z " /><path fill="rgb(0,0,0)" stroke="rgb(0,0,0)" stroke-width="1" opacity="0.7803921568627451" d="M 106.5 397 L 107 401.5 L 106 401.5 L 106.5 397 Z " /><path fill="rgb(0,0,0)" stroke="rgb(0,0,0)" stroke-width="1" opacity="0.7803921568627451" d="M 405.5 397 L 406 401.5 L 405 401.5 L 405.5 397 Z " /><path fill="rgb(0,0,0)" stroke="rgb(0,0,0)" stroke-width="1" opacity="0.7803921568627451" d="M 105.5 406 L 106 409.5 L 105 409.5 L 105.5 406 Z " /><path fill="rgb(0,0,0)" stroke="rgb(0,0,0)" stroke-width="1" opacity="0.7803921568627451" d="M 406.5 406 L 407 409.5 L 406 409.5 L 406.5 406 Z " /><path fill="rgb(0,0,0)" stroke="rgb(0,0,0)" stroke-width="1" opacity="0.7803921568627451" d="M 104.5 414 L 105 418.5 L 104 418.5 L 104.5 414 Z " /><path fill="rgb(0,0,0)" stroke="rgb(0,0,0)" stroke-width="1" opacity="0.7803921568627451" d="M 407.5 414 L 408 418.5 L 407 418.5 L 407.5 414 Z " /><path fill="rgb(0,0,0)" stroke="rgb(0,0,0)" stroke-width="1" opacity="0.7803921568627451" d="M 103.5 423 L 104 426.5 L 103 426.5 L 103.5 423 Z " /><path fill="rgb(0,0,0)" stroke="rgb(0,0,0)" stroke-width="1" opacity="0.7803921568627451" d="M 408.5 423 L 409 426.5 L 408 426.5 L 408.5 423 Z " /><path fill="rgb(0,0,0)" stroke="rgb(0,0,0)" stroke-width="1" opacity="0.7803921568627451" d="M 102.5 431 L 103 435.5 L 102 435.5 L 102.5 431 Z " /><path fill="rgb(0,0,0)" stroke="rgb(0,0,0)" stroke-width="1" opacity="0.7803921568627451" d="M 409.5 431 L 410 435.5 L 409 435.5 L 409.5 431 Z " /><path fill="rgb(0,0,0)" stroke="rgb(0,0,0)" stroke-width="1" opacity="0.7803921568627451" d="M 101.5 440 L 102 443.5 L 101 443.5 L 101.5 440 Z " /><path fill="rgb(0,0,0)" stroke="rgb(0,0,0)" stroke-width="1" opacity="0.7803921568627451" d="M 410.5 440 L 411 443.5 L 410 443.5 L 410.5 440 Z " /><path fill="rgb(0,0,0)" stroke="rgb(0,0,0)" stroke-width="1" opacity="0.7803921568627451" d="M 100.5 448 L 101 452.5 L 100 452.5 L 100.5 448 Z " /><path fill="rgb(0,0,0)" stroke="rgb(0,0,0)" stroke-width="1" opacity="0.7803921568627451" d="M 411.5 448 L 412 452.5 L 411 452.5 L 411.5 448 Z " /><path fill="rgb(0,0,0)" stroke="rgb(0,0,0)" stroke-width="1" opacity="0.7803921568627451" d="M 99.5 457 L 100 460.5 L 99 460.5 L 99.5 457 Z " /><path fill="rgb(0,0,0)" stroke="rgb(0,0,0)" stroke-width="1" opacity="0.7803921568627451" d="M 412.5 457 L 413 460.5 L 412 460.5 L 412.5 457 Z " /><path fill="rgb(0,0,0)" stroke="rgb(0,0,0)" stroke-width="1" opacity="0.7803921568627451" d="M 98.5 465 L 99 469.5 L 98 469.5 L 98.5 465 Z " /><path fill="rgb(0,0,0)" stroke="rgb(0,0,0)" stroke-width="1" opacity="0.7803921568627451" d="M 413.5 465 L 414 469.5 L 413 469.5 L 413.5 465 Z " /><path fill="rgb(0,0,0)" stroke="rgb(0,0,0)" stroke-width="1" opacity="0.7803921568627451" d="M 97.5 474 L 98 477.5 L 97 477.5 L 97.5 474 Z " /><path fill="rgb(0,0,0)" stroke="rgb(0,0,0)" stroke-width="1" opacity="0.7803921568627451" d="M 414.5 474 L 415 477.5 L 414 477.5 L 414.5 474 Z " /><path fill="rgb(0,0,0)" stroke="rgb(0,0,0)" stroke-width="1" opacity="0.7803921568627451" d="M 96.5 482 L 97 486.5 L 96 486.5 L 96.5 482 Z " /><path fill="rgb(0,0,0)" stroke="rgb(0,0,0)" stroke-width="1" opacity="0.7803921568627451" d="M 415.5 482 L 416 486.5 L 415 486.5 L 415.5 482 Z " /><path fill="rgb(0,0,0)" stroke="rgb(0,0,0)" stroke-width="1" opacity="0.7803921568627451" d="M 97.5 492 L 99.5 495 L 97.5 492 Z " /><path fill="rgb(0,0,0)" stroke="rgb(0,0,0)" stroke-width="1" opacity="0.7803921568627451" d="M 414.5 492 L 412.5 495 L 414.5 492 Z " /><path fill="rgb(64,94,171)" stroke="rgb(64,94,171)" stroke-width="1" opacity="1" d="M 168.5 115 L 169.5 117 L 168.5 115 Z " /><path fill="rgb(64,94,171)" stroke="rgb(64,94,171)" stroke-width="1" opacity="1" d="M 171.5 118 L 174 119.5 L 172.5 120 L 171.5 118 Z " /><path fill="rgb(64,94,171)" stroke="rgb(64,94,171)" stroke-width="1" opacity="1" d="M 362.5 185 L 361.5 187 L 362.5 185 Z " /><path fill="rgb(64,94,171)" stroke="rgb(64,94,171)" stroke-width="1" opacity="1" d="M 52.5 200 L 54 200.5 L 51.5 202 L 52.5 200 Z " /><path fill="rgb(64,94,171)" stroke="rgb(64,94,171)" stroke-width="1" opacity="1" d="M 90.5 200 L 93 201.5 L 91.5 201 L 90.5 200 Z " /><path fill="rgb(64,94,171)" stroke="rgb(64,94,171)" stroke-width="1" opacity="1" d="M 108.5 200 L 110 200.5 L 107.5 202 L 108.5 200 Z " /><path fill="rgb(64,94,171)" stroke="rgb(64,94,171)" stroke-width="1" opacity="1" d="M 146.5 200 L 149 201.5 L 147.5 201 L 146.5 200 Z " /><path fill="rgb(64,94,171)" stroke="rgb(64,94,171)" stroke-width="1" opacity="1" d="M 188.5 200 L 190 200.5 L 187.5 202 L 188.5 200 Z " /><path fill="rgb(64,94,171)" stroke="rgb(64,94,171)" stroke-width="1" opacity="1" d="M 322.5 200 L 325 201.5 L 323.5 201 L 322.5 200 Z " /><path fill="rgb(64,94,171)" stroke="rgb(64,94,171)" stroke-width="1" opacity="1" d="M 49.5 203 L 49 204.5 L 48.5 206 L 48 204.5 L 49.5 203 Z " /><path fill="rgb(64,94,171)" stroke="rgb(64,94,171)" stroke-width="1" opacity="1" d="M 94.5 203 L 96 205.5 L 95 205.5 L 94.5 203 Z " /><path fill="rgb(64,94,171)" stroke="rgb(64,94,171)" stroke-width="1" opacity="1" d="M 105.5 203 L 105 204.5 L 104.5 206 L 104 204.5 L 105.5 203 Z " /><path fill="rgb(64,94,171)" stroke="rgb(64,94,171)" stroke-width="1" opacity="1" d="M 150.5 203 L 152 205.5 L 151 205.5 L 150.5 203 Z " /><path fill="rgb(64,94,171)" stroke="rgb(64,94,171)" stroke-width="1" opacity="1" d="M 185.5 203 L 185 204.5 L 184.5 206 L 184 204.5 L 185.5 203 Z " /><path fill="rgb(64,94,171)" stroke="rgb(64,94,171)" stroke-width="1" opacity="1" d="M 326.5 203 L 328 205.5 L 327 205.5 L 326.5 203 Z " /><path fill="rgb(64,94,171)" stroke="rgb(64,94,171)" stroke-width="1" opacity="1" d="M 48.5 242 L 50 244.5 L 48 243.5 L 48.5 242 Z " /><path fill="rgb(64,94,171)" stroke="rgb(64,94,171)" stroke-width="1" opacity="1" d="M 95.5 242 L 96 243.5 L 94 244.5 L 95.5 242 Z " /><path fill="rgb(64,94,171)" stroke="rgb(64,94,171)" stroke-width="1" opacity="1" d="M 104.5 242 L 106 244.5 L 104 243.5 L 104.5 242 Z " /><path fill="rgb(64,94,171)" stroke="rgb(64,94,171)" stroke-width="1" opacity="1" d="M 151.5 242 L 152 243.5 L 150 244.5 L 151.5 242 Z " /><path fill="rgb(64,94,171)" stroke="rgb(64,94,171)" stroke-width="1" opacity="1" d="M 361.5 245 L 362.5 247 L 361.5 245 Z " /><path fill="rgb(64,94,171)" stroke="rgb(64,94,171)" stroke-width="1" opacity="1" d="M 478.5 245 L 477.5 247 L 478.5 245 Z " /><path fill="rgb(64,94,171)" stroke="rgb(64,94,171)" stroke-width="1" opacity="1" d="M 51.5 246 L 54 247.5 L 52.5 248 L 51.5 246 Z " /><path fill="rgb(64,94,171)" stroke="rgb(64,94,171)" stroke-width="1" opacity="1" d="M 92.5 246 L 91.5 248 L 90 247.5 L 92.5 246 Z " /><path fill="rgb(64,94,171)" stroke="rgb(64,94,171)" stroke-width="1" opacity="1" d="M 107.5 246 L 110 247.5 L 108.5 248 L 107.5 246 Z " /><path fill="rgb(64,94,171)" stroke="rgb(64,94,171)" stroke-width="1" opacity="1" d="M 148.5 246 L 147.5 248 L 146 247.5 L 148.5 246 Z " /><path fill="rgb(64,94,171)" stroke="rgb(64,94,171)" stroke-width="1" opacity="1" d="M 347.5 253 L 348.5 255 L 347.5 253 Z " /><path fill="rgb(64,94,171)" stroke="rgb(64,94,171)" stroke-width="1" opacity="1" d="M 353.5 259 L 354.5 261 L 353.5 259 Z " /><path fill="rgb(64,94,171)" stroke="rgb(64,94,171)" stroke-width="1" opacity="1" d="M 92.5 264 L 94 264.5 L 91.5 266 L 92.5 264 Z " /><path fill="rgb(64,94,171)" stroke="rgb(64,94,171)" stroke-width="1" opacity="1" d="M 114.5 264 L 117 265.5 L 115.5 265 L 114.5 264 Z " /><path fill="rgb(64,94,171)" stroke="rgb(64,94,171)" stroke-width="1" opacity="1" d="M 132.5 264 L 134 264.5 L 131.5 266 L 132.5 264 Z " /><path fill="rgb(64,94,171)" stroke="rgb(64,94,171)" stroke-width="1" opacity="1" d="M 154.5 264 L 157 265.5 L 155.5 265 L 154.5 264 Z " /><path fill="rgb(64,94,171)" stroke="rgb(64,94,171)" stroke-width="1" opacity="1" d="M 89.5 267 L 89 268.5 L 88.5 270 L 88 268.5 L 89.5 267 Z " /><path fill="rgb(64,94,171)" stroke="rgb(64,94,171)" stroke-width="1" opacity="1" d="M 118.5 267 L 120 269.5 L 119 269.5 L 118.5 267 Z " /><path fill="rgb(64,94,171)" stroke="rgb(64,94,171)" stroke-width="1" opacity="1" d="M 129.5 267 L 129 268.5 L 128.5 270 L 128 268.5 L 129.5 267 Z " /><path fill="rgb(64,94,171)" stroke="rgb(64,94,171)" stroke-width="1" opacity="1" d="M 158.5 267 L 160 269.5 L 159 269.5 L 158.5 267 Z " /><path fill="rgb(64,94,171)" stroke="rgb(64,94,171)" stroke-width="1" opacity="1" d="M 88.5 274 L 90 276.5 L 88 275.5 L 88.5 274 Z " /><path fill="rgb(64,94,171)" stroke="rgb(64,94,171)" stroke-width="1" opacity="1" d="M 119.5 274 L 120 275.5 L 118 276.5 L 119.5 274 Z " /><path fill="rgb(64,94,171)" stroke="rgb(64,94,171)" stroke-width="1" opacity="1" d="M 128.5 274 L 130 276.5 L 128 275.5 L 128.5 274 Z " /><path fill="rgb(64,94,171)" stroke="rgb(64,94,171)" stroke-width="1" opacity="1" d="M 159.5 274 L 160 275.5 L 158 276.5 L 159.5 274 Z " /><path fill="rgb(64,94,171)" stroke="rgb(64,94,171)" stroke-width="1" opacity="1" d="M 91.5 278 L 94 279.5 L 92.5 280 L 91.5 278 Z " /><path fill="rgb(64,94,171)" stroke="rgb(64,94,171)" stroke-width="1" opacity="1" d="M 116.5 278 L 115.5 280 L 114 279.5 L 116.5 278 Z " /><path fill="rgb(64,94,171)" stroke="rgb(64,94,171)" stroke-width="1" opacity="1" d="M 131.5 278 L 134 279.5 L 132.5 280 L 131.5 278 Z " /><path fill="rgb(64,94,171)" stroke="rgb(64,94,171)" stroke-width="1" opacity="1" d="M 156.5 278 L 155.5 280 L 154 279.5 L 156.5 278 Z " /><path fill="rgb(64,94,171)" stroke="rgb(64,94,171)" stroke-width="1" opacity="1" d="M 92.5 288 L 94 288.5 L 91.5 290 L 92.5 288 Z " /><path fill="rgb(64,94,171)" stroke="rgb(64,94,171)" stroke-width="1" opacity="1" d="M 114.5 288 L 117 289.5 L 115.5 289 L 114.5 288 Z " /><path fill="rgb(64,94,171)" stroke="rgb(64,94,171)" stroke-width="1" opacity="1" d="M 132.5 288 L 134 288.5 L 131.5 290 L 132.5 288 Z " /><path fill="rgb(64,94,171)" stroke="rgb(64,94,171)" stroke-width="1" opacity="1" d="M 154.5 288 L 157 289.5 L 155.5 289 L 154.5 288 Z " /><path fill="rgb(64,94,171)" stroke="rgb(64,94,171)" stroke-width="1" opacity="1" d="M 184.5 290 L 186 292.5 L 184 291.5 L 184.5 290 Z " /><path fill="rgb(64,94,171)" stroke="rgb(64,94,171)" stroke-width="1" opacity="1" d="M 327.5 290 L 328 291.5 L 326 292.5 L 327.5 290 Z " /><path fill="rgb(64,94,171)" stroke="rgb(64,94,171)" stroke-width="1" opacity="1" d="M 89.5 291 L 89 292.5 L 88.5 294 L 88 292.5 L 89.5 291 Z " /><path fill="rgb(64,94,171)" stroke="rgb(64,94,171)" stroke-width="1" opacity="1" d="M 118.5 291 L 120 293.5 L 119 293.5 L 118.5 291 Z " /><path fill="rgb(64,94,171)" stroke="rgb(64,94,171)" stroke-width="1" opacity="1" d="M 129.5 291 L 129 292.5 L 128.5 294 L 128 292.5 L 129.5 291 Z " /><path fill="rgb(64,94,171)" stroke="rgb(64,94,171)" stroke-width="1" opacity="1" d="M 158.5 291 L 160 293.5 L 159 293.5 L 158.5 291 Z " /><path fill="rgb(64,94,171)" stroke="rgb(64,94,171)" stroke-width="1" opacity="1" d="M 187.5 294 L 190 295.5 L 188.5 296 L 187.5 294 Z " /><path fill="rgb(64,94,171)" stroke="rgb(64,94,171)" stroke-width="1" opacity="1" d="M 324.5 294 L 323.5 296 L 322 295.5 L 324.5 294 Z " /><path fill="rgb(64,94,171)" stroke="rgb(64,94,171)" stroke-width="1" opacity="1" d="M 88.5 298 L 90 300.5 L 88 299.5 L 88.5 298 Z " /><path fill="rgb(64,94,171)" stroke="rgb(64,94,171)" stroke-width="1" opacity="1" d="M 119.5 298 L 120 299.5 L 118 300.5 L 119.5 298 Z " /><path fill="rgb(64,94,171)" stroke="rgb(64,94,171)" stroke-width="1" opacity="1" d="M 128.5 298 L 130 300.5 L 128 299.5 L 128.5 298 Z " /><path fill="rgb(64,94,171)" stroke="rgb(64,94,171)" stroke-width="1" opacity="1" d="M 159.5 298 L 160 299.5 L 158 300.5 L 159.5 298 Z " /><path fill="rgb(64,94,171)" stroke="rgb(64,94,171)" stroke-width="1" opacity="1" d="M 91.5 302 L 94 303.5 L 92.5 304 L 91.5 302 Z " /><path fill="rgb(64,94,171)" stroke="rgb(64,94,171)" stroke-width="1" opacity="1" d="M 116.5 302 L 115.5 304 L 114 303.5 L 116.5 302 Z " /><path fill="rgb(64,94,171)" stroke="rgb(64,94,171)" stroke-width="1" opacity="1" d="M 131.5 302 L 134 303.5 L 132.5 304 L 131.5 302 Z " /><path fill="rgb(64,94,171)" stroke="rgb(64,94,171)" stroke-width="1" opacity="1" d="M 156.5 302 L 155.5 304 L 154 303.5 L 156.5 302 Z " /><path fill="rgb(64,94,171)" stroke="rgb(64,94,171)" stroke-width="1" opacity="1" d="M 68.5 312 L 70 312.5 L 67.5 314 L 68.5 312 Z " /><path fill="rgb(64,94,171)" stroke="rgb(64,94,171)" stroke-width="1" opacity="1" d="M 442.5 312 L 445 313.5 L 443.5 313 L 442.5 312 Z " /><path fill="rgb(64,94,171)" stroke="rgb(64,94,171)" stroke-width="1" opacity="1" d="M 65.5 315 L 65 316.5 L 64.5 318 L 64 316.5 L 65.5 315 Z " /><path fill="rgb(64,94,171)" stroke="rgb(64,94,171)" stroke-width="1" opacity="1" d="M 446.5 315 L 448 317.5 L 447 317.5 L 446.5 315 Z " /><path fill="rgb(64,94,171)" stroke="rgb(64,94,171)" stroke-width="1" opacity="1" d="M 80 328 L 431.5 328 L 432 328.5 L 432 376 L 403.5 376 L 403 373.5 L 402 372.5 Q 402.7 364.5 401 360 L 410.5 360 L 415 356.5 L 416 349.5 L 412.5 345 L 410.5 344 L 101.5 344 L 97 347.5 L 96 354.5 L 99.5 359 L 101.5 360 L 111 360 L 109 376 L 80 376 L 80 328 Z " /><path fill="rgb(0,0,0)" stroke="rgb(0,0,0)" stroke-width="1" opacity="1" d="M 207.5 16 L 448.5 16 L 455 20.5 L 456 23.5 L 456 104 L 472.5 104 L 479 108.5 L 480 111.5 L 480 135.5 L 481.5 137 Q 486.5 136.5 487 140.5 L 488 143.5 L 488 174.5 L 494 181.5 L 496 189.5 L 496 370.5 Q 494 382.5 485.5 388 L 474.5 392 L 404 392.5 L 405 393.5 L 405 401.5 L 406 402.5 L 407 418.5 L 408 419.5 L 409 435.5 L 410 436.5 L 411 452.5 L 412 453.5 L 413 469.5 L 414 470.5 L 416 488.5 L 411.5 495 L 408.5 496 L 103.5 496 L 97 491.5 L 96 487.5 L 97 486.5 L 97 478.5 L 99 469.5 L 99 461.5 L 101 452.5 L 101 444.5 L 103 435.5 L 107 393.5 L 108 392.5 L 37.5 392 Q 25.5 390 20 381.5 L 16 370.5 L 16 189.5 L 18 181.5 L 24 174.5 L 24 143.5 L 28.5 137 L 32 135.5 L 32 95.5 L 36.5 89 L 39.5 88 L 168.5 88 L 175 92.5 L 180 104 L 199.5 104 L 200 103.5 L 200 23.5 L 204.5 17 L 207.5 16 Z M 216 32 L 216 104 L 217 104 L 440 104 L 440 33 L 440 32 L 216 32 Z M 48 104 L 48 136 L 464 136 L 464 136 L 464 120 L 175 120 L 170 118 L 164 106 L 163 104 L 48 104 Z M 40 152 L 40 168 L 41 168 L 472 168 L 472 153 L 472 152 L 40 152 Z M 37 184 L 32 189 L 32 372 L 37 376 L 64 376 L 64 319 L 66 314 L 71 312 L 442 312 L 446 314 L 448 319 L 448 376 L 476 376 L 480 372 L 480 263 L 477 264 L 364 264 L 353 259 Q 346 254 344 245 L 344 188 L 345 187 L 345 184 L 37 184 Z M 365 184 L 363 185 L 360 189 L 360 244 L 361 246 L 365 248 L 476 248 L 478 247 L 480 244 L 480 189 L 478 185 L 476 184 L 365 184 Z M 80 328 L 80 376 L 109 376 L 111 360 L 102 360 L 100 359 L 96 355 L 97 348 L 102 344 L 411 344 L 413 345 L 416 350 L 415 357 L 411 360 L 401 360 Q 403 365 402 373 L 403 374 L 404 376 L 432 376 L 432 329 L 432 328 L 80 328 Z M 127 360 L 126 364 L 125 380 L 124 381 L 123 397 L 122 398 L 121 414 L 120 415 L 119 431 L 118 432 L 117 448 L 116 449 L 115 465 L 114 466 L 114 474 L 113 475 Q 112 480 114 480 L 399 480 L 394 433 L 393 432 L 392 416 L 391 415 L 391 407 L 389 398 L 389 390 L 387 381 L 387 373 L 385 364 L 385 360 L 127 360 Z " /><path fill="rgb(0,0,0)" stroke="rgb(0,0,0)" stroke-width="1" opacity="1" d="M 326.5 48 L 417.5 48 L 422 50 L 424 57.5 L 422 62 L 417.5 64 L 326.5 64 L 322 62 L 320 54.5 L 322.5 50 L 326.5 48 Z " /><path fill="rgb(0,0,0)" stroke="rgb(0,0,0)" stroke-width="1" opacity="1" d="M 238.5 80 L 417.5 80 L 422 82 L 424 89.5 L 422 94 L 417.5 96 L 238.5 96 L 234 94 L 232 86.5 L 234.5 82 L 238.5 80 Z " /><path fill="rgb(0,0,0)" stroke="rgb(0,0,0)" stroke-width="1" opacity="1" d="M 388.5 192 L 399.5 193 Q 407.6 195.9 412 202.5 L 416 212.5 L 416 219.5 Q 413.6 230.6 405.5 236 L 395.5 240 L 388.5 240 Q 377.4 237.6 372 229.5 L 368 219.5 L 368 212.5 Q 370.4 201.4 378.5 196 L 388.5 192 Z M 390 208 L 388 209 L 384 214 L 385 221 L 390 224 L 397 223 L 400 219 L 399 212 Q 397 207 390 208 Z " /><path fill="rgb(0,0,0)" stroke="rgb(0,0,0)" stroke-width="1" opacity="1" d="M 444.5 192 L 455.5 193 Q 463.6 195.9 468 202.5 L 472 212.5 L 472 219.5 Q 469.6 230.6 461.5 236 L 451.5 240 L 444.5 240 Q 433.4 237.6 428 229.5 L 424 219.5 L 424 212.5 Q 426.4 201.4 434.5 196 L 444.5 192 Z M 446 208 L 444 209 L 440 214 L 441 221 L 446 224 L 453 223 L 456 219 L 455 212 Q 453 207 446 208 Z " /><path fill="rgb(0,0,0)" stroke="rgb(0,0,0)" stroke-width="1" opacity="1" d="M 54.5 200 L 89.5 200 L 94 202 L 96 206.5 L 96 241.5 L 94 246 L 89.5 248 L 54.5 248 L 50 246 L 48 241.5 L 48 206.5 L 50 202 L 54.5 200 Z M 64 216 L 64 232 L 80 232 L 80 216 L 64 216 Z " /><path fill="rgb(0,0,0)" stroke="rgb(0,0,0)" stroke-width="1" opacity="1" d="M 110.5 200 L 145.5 200 L 150 202 L 152 206.5 L 152 241.5 L 150 246 L 145.5 248 L 110.5 248 L 106 246 L 104 241.5 L 104 206.5 L 106 202 L 110.5 200 Z M 120 216 L 120 232 L 136 232 L 136 216 L 120 216 Z " /><path fill="rgb(0,0,0)" stroke="rgb(0,0,0)" stroke-width="1" opacity="1" d="M 190.5 200 L 321.5 200 L 326 202 L 328 206.5 L 328 289.5 L 326 294 L 321.5 296 L 190.5 296 L 186 294 L 184 289.5 L 184 206.5 L 186 202 L 190.5 200 Z M 200 216 L 200 280 L 312 280 L 312 216 L 200 216 Z " /><path fill="rgb(0,0,0)" stroke="rgb(0,0,0)" stroke-width="1" opacity="1" d="M 53.5 264 L 74.5 264 L 79 267.5 L 80 274.5 L 76.5 279 L 74.5 280 L 53.5 280 L 49 276.5 L 48 269.5 L 51.5 265 L 53.5 264 Z " /><path fill="rgb(0,0,0)" stroke="rgb(0,0,0)" stroke-width="1" opacity="1" d="M 94.5 264 L 113.5 264 L 118 266 L 120 273.5 L 118 278 L 113.5 280 L 94.5 280 L 90 278 L 88 270.5 L 90 266 L 94.5 264 Z " /><path fill="rgb(0,0,0)" stroke="rgb(0,0,0)" stroke-width="1" opacity="1" d="M 134.5 264 L 153.5 264 L 158 266 L 160 273.5 L 158 278 L 153.5 280 L 134.5 280 L 130 278 L 128 270.5 L 130 266 L 134.5 264 Z " /><path fill="rgb(0,0,0)" stroke="rgb(0,0,0)" stroke-width="1" opacity="1" d="M 53.5 288 L 74.5 288 L 79 291.5 L 80 298.5 L 76.5 303 L 74.5 304 L 53.5 304 L 49 300.5 L 48 293.5 L 51.5 289 L 53.5 288 Z " /><path fill="rgb(0,0,0)" stroke="rgb(0,0,0)" stroke-width="1" opacity="1" d="M 94.5 288 L 113.5 288 L 118 290 L 120 297.5 L 118 302 L 113.5 304 L 94.5 304 L 90 302 L 88 294.5 L 90 290 L 94.5 288 Z " /><path fill="rgb(0,0,0)" stroke="rgb(0,0,0)" stroke-width="1" opacity="1" d="M 134.5 288 L 153.5 288 L 158 290 L 160 297.5 L 158 302 L 153.5 304 L 134.5 304 L 130 302 L 128 294.5 L 130 290 L 134.5 288 Z " /><path fill="rgb(0,0,0)" stroke="rgb(0,0,0)" stroke-width="1" opacity="1" d="M 150.5 376 L 361.5 376 L 366 378 L 368 385.5 L 366 390 L 361.5 392 L 150.5 392 L 146 390 L 144 382.5 L 146.5 378 L 150.5 376 Z " /><path fill="rgb(0,0,0)" stroke="rgb(0,0,0)" stroke-width="1" opacity="1" d="M 142.5 408 L 369.5 408 L 374 410 L 376 417.5 L 374 422 L 369.5 424 L 142.5 424 L 138 422 L 136 414.5 L 138.5 410 L 142.5 408 Z " /><path fill="rgb(0,0,0)" stroke="rgb(0,0,0)" stroke-width="1" opacity="1" d="M 134.5 440 L 377.5 440 L 382 442 L 384 449.5 L 382 454 L 377.5 456 L 134.5 456 L 130 454 L 128 446.5 L 130.5 442 L 134.5 440 Z " /><path fill="rgb(78,116,216)" stroke="rgb(78,116,216)" stroke-width="1" opacity="1" d="M 169.5 117 L 170.5 119 L 169.5 117 Z " /><path fill="rgb(78,116,216)" stroke="rgb(78,116,216)" stroke-width="1" opacity="1" d="M 35.5 185 L 33.5 188 L 35.5 185 Z " /><path fill="rgb(78,116,216)" stroke="rgb(78,116,216)" stroke-width="1" opacity="1" d="M 50.5 201 L 49.5 203 L 50.5 201 Z " /><path fill="rgb(78,116,216)" stroke="rgb(78,116,216)" stroke-width="1" opacity="1" d="M 93.5 201 L 94.5 203 L 93.5 201 Z " /><path fill="rgb(78,116,216)" stroke="rgb(78,116,216)" stroke-width="1" opacity="1" d="M 106.5 201 L 105.5 203 L 106.5 201 Z " /><path fill="rgb(78,116,216)" stroke="rgb(78,116,216)" stroke-width="1" opacity="1" d="M 149.5 201 L 150.5 203 L 149.5 201 Z " /><path fill="rgb(78,116,216)" stroke="rgb(78,116,216)" stroke-width="1" opacity="1" d="M 186.5 201 L 185.5 203 L 186.5 201 Z " /><path fill="rgb(78,116,216)" stroke="rgb(78,116,216)" stroke-width="1" opacity="1" d="M 325.5 201 L 326.5 203 L 325.5 201 Z " /><path fill="rgb(78,116,216)" stroke="rgb(78,116,216)" stroke-width="1" opacity="1" d="M 49.5 245 L 50.5 247 L 49.5 245 Z " /><path fill="rgb(78,116,216)" stroke="rgb(78,116,216)" stroke-width="1" opacity="1" d="M 94.5 245 L 93.5 247 L 94.5 245 Z " /><path fill="rgb(78,116,216)" stroke="rgb(78,116,216)" stroke-width="1" opacity="1" d="M 105.5 245 L 106.5 247 L 105.5 245 Z " /><path fill="rgb(78,116,216)" stroke="rgb(78,116,216)" stroke-width="1" opacity="1" d="M 150.5 245 L 149.5 247 L 150.5 245 Z " /><path fill="rgb(78,116,216)" stroke="rgb(78,116,216)" stroke-width="1" opacity="1" d="M 348.5 255 L 349.5 257 L 348.5 255 Z " /><path fill="rgb(78,116,216)" stroke="rgb(78,116,216)" stroke-width="1" opacity="1" d="M 351.5 258 L 352.5 260 L 351.5 258 Z " /><path fill="rgb(78,116,216)" stroke="rgb(78,116,216)" stroke-width="1" opacity="1" d="M 50.5 265 L 49.5 267 L 50.5 265 Z " /><path fill="rgb(78,116,216)" stroke="rgb(78,116,216)" stroke-width="1" opacity="1" d="M 77.5 265 L 78.5 267 L 77.5 265 Z " /><path fill="rgb(78,116,216)" stroke="rgb(78,116,216)" stroke-width="1" opacity="1" d="M 90.5 265 L 89.5 267 L 90.5 265 Z " /><path fill="rgb(78,116,216)" stroke="rgb(78,116,216)" stroke-width="1" opacity="1" d="M 117.5 265 L 118.5 267 L 117.5 265 Z " /><path fill="rgb(78,116,216)" stroke="rgb(78,116,216)" stroke-width="1" opacity="1" d="M 130.5 265 L 129.5 267 L 130.5 265 Z " /><path fill="rgb(78,116,216)" stroke="rgb(78,116,216)" stroke-width="1" opacity="1" d="M 157.5 265 L 158.5 267 L 157.5 265 Z " /><path fill="rgb(78,116,216)" stroke="rgb(78,116,216)" stroke-width="1" opacity="1" d="M 49.5 277 L 50.5 279 L 49.5 277 Z " /><path fill="rgb(78,116,216)" stroke="rgb(78,116,216)" stroke-width="1" opacity="1" d="M 78.5 277 L 77.5 279 L 78.5 277 Z " /><path fill="rgb(78,116,216)" stroke="rgb(78,116,216)" stroke-width="1" opacity="1" d="M 89.5 277 L 90.5 279 L 89.5 277 Z " /><path fill="rgb(78,116,216)" stroke="rgb(78,116,216)" stroke-width="1" opacity="1" d="M 118.5 277 L 117.5 279 L 118.5 277 Z " /><path fill="rgb(78,116,216)" stroke="rgb(78,116,216)" stroke-width="1" opacity="1" d="M 129.5 277 L 130.5 279 L 129.5 277 Z " /><path fill="rgb(78,116,216)" stroke="rgb(78,116,216)" stroke-width="1" opacity="1" d="M 158.5 277 L 157.5 279 L 158.5 277 Z " /><path fill="rgb(78,116,216)" stroke="rgb(78,116,216)" stroke-width="1" opacity="1" d="M 50.5 289 L 49.5 291 L 50.5 289 Z " /><path fill="rgb(78,116,216)" stroke="rgb(78,116,216)" stroke-width="1" opacity="1" d="M 77.5 289 L 78.5 291 L 77.5 289 Z " /><path fill="rgb(78,116,216)" stroke="rgb(78,116,216)" stroke-width="1" opacity="1" d="M 90.5 289 L 89.5 291 L 90.5 289 Z " /><path fill="rgb(78,116,216)" stroke="rgb(78,116,216)" stroke-width="1" opacity="1" d="M 117.5 289 L 118.5 291 L 117.5 289 Z " /><path fill="rgb(78,116,216)" stroke="rgb(78,116,216)" stroke-width="1" opacity="1" d="M 130.5 289 L 129.5 291 L 130.5 289 Z " /><path fill="rgb(78,116,216)" stroke="rgb(78,116,216)" stroke-width="1" opacity="1" d="M 157.5 289 L 158.5 291 L 157.5 289 Z " /><path fill="rgb(78,116,216)" stroke="rgb(78,116,216)" stroke-width="1" opacity="1" d="M 185.5 293 L 186.5 295 L 185.5 293 Z " /><path fill="rgb(78,116,216)" stroke="rgb(78,116,216)" stroke-width="1" opacity="1" d="M 326.5 293 L 325.5 295 L 326.5 293 Z " /><path fill="rgb(78,116,216)" stroke="rgb(78,116,216)" stroke-width="1" opacity="1" d="M 49.5 301 L 50.5 303 L 49.5 301 Z " /><path fill="rgb(78,116,216)" stroke="rgb(78,116,216)" stroke-width="1" opacity="1" d="M 78.5 301 L 77.5 303 L 78.5 301 Z " /><path fill="rgb(78,116,216)" stroke="rgb(78,116,216)" stroke-width="1" opacity="1" d="M 89.5 301 L 90.5 303 L 89.5 301 Z " /><path fill="rgb(78,116,216)" stroke="rgb(78,116,216)" stroke-width="1" opacity="1" d="M 118.5 301 L 117.5 303 L 118.5 301 Z " /><path fill="rgb(78,116,216)" stroke="rgb(78,116,216)" stroke-width="1" opacity="1" d="M 129.5 301 L 130.5 303 L 129.5 301 Z " /><path fill="rgb(78,116,216)" stroke="rgb(78,116,216)" stroke-width="1" opacity="1" d="M 158.5 301 L 157.5 303 L 158.5 301 Z " /><path fill="rgb(78,116,216)" stroke="rgb(78,116,216)" stroke-width="1" opacity="1" d="M 66.5 313 L 65.5 315 L 66.5 313 Z " /><path fill="rgb(78,116,216)" stroke="rgb(78,116,216)" stroke-width="1" opacity="1" d="M 445.5 313 L 446.5 315 L 445.5 313 Z " /><path fill="rgb(78,116,216)" stroke="rgb(78,116,216)" stroke-width="1" opacity="1" d="M 33.5 372 L 35.5 375 L 33.5 372 Z " /><path fill="rgb(78,116,216)" stroke="rgb(78,116,216)" stroke-width="1" opacity="1" d="M 478.5 372 L 476.5 375 L 478.5 372 Z " /><path fill="rgb(78,117,217)" stroke="rgb(78,117,217)" stroke-width="1" opacity="1" d="M 48 104 L 162.5 104 L 163 105.5 L 170.5 119 L 172.5 120 L 464 120 L 464 135.5 L 463.5 136 L 48 136 L 48 104 Z " /><path fill="rgb(78,117,217)" stroke="rgb(78,117,217)" stroke-width="1" opacity="1" d="M 39.5 184 L 343.5 184 L 344 184.5 L 344 247.5 Q 346.5 255.5 352.5 260 L 360.5 264 L 480 264 L 480 368.5 L 475.5 375 L 472.5 376 L 448 376 L 448 316.5 L 445.5 313 L 443.5 312 L 68.5 312 L 65 314.5 L 64 316.5 L 64 376 L 39.5 376 L 33 371.5 L 32 368.5 L 32 191.5 L 36.5 185 L 39.5 184 Z M 53 200 L 51 201 L 48 205 L 48 244 L 49 246 L 53 248 L 92 248 L 94 247 L 96 244 L 96 205 L 95 203 L 92 200 L 53 200 Z M 109 200 L 107 201 L 104 205 L 104 244 L 105 246 L 109 248 L 148 248 L 150 247 L 152 244 L 152 205 L 151 203 L 148 200 L 109 200 Z M 189 200 L 187 201 L 184 205 L 184 292 L 185 294 L 189 296 L 324 296 L 326 295 L 328 292 L 328 205 L 327 203 L 324 200 L 189 200 Z M 53 264 L 51 265 L 48 269 L 49 278 L 53 280 L 76 280 L 78 279 L 80 276 L 79 267 L 76 264 L 53 264 Z M 93 264 L 91 265 L 88 269 L 89 278 L 93 280 L 116 280 L 118 279 L 120 276 L 119 267 L 116 264 L 93 264 Z M 133 264 L 131 265 L 128 269 L 129 278 L 133 280 L 156 280 L 158 279 L 160 276 L 159 267 L 156 264 L 133 264 Z M 53 288 L 51 289 L 48 293 L 49 302 L 53 304 L 76 304 L 78 303 L 80 300 L 79 291 L 76 288 L 53 288 Z M 93 288 L 91 289 L 88 293 L 89 302 L 93 304 L 116 304 L 118 303 L 120 300 L 119 291 L 116 288 L 93 288 Z M 133 288 L 131 289 L 128 293 L 129 302 L 133 304 L 156 304 L 158 303 L 160 300 L 159 291 L 156 288 L 133 288 Z " /></svg>