<svg width="512" height="512" version="1.1" xmlns="http://www.w3.org/2000/svg" desc="Created with imagetracer.js version 1.2.6" ><path fill="rgb(52,87,198)" stroke="rgb(52,87,198)" stroke-width="1" opacity="1" d="M 245.5 40 L 251 40.5 L 245.5 41 L 245.5 40 Z " /><path fill="rgb(52,87,198)" stroke="rgb(52,87,198)" stroke-width="1" opacity="1" d="M 261.5 40 L 267 40.5 L 261.5 41 L 261.5 40 Z " /><path fill="rgb(52,87,198)" stroke="rgb(52,87,198)" stroke-width="1" opacity="1" d="M 239.5 41 L 242 41.5 L 239.5 42 L 239.5 41 Z " /><path fill="rgb(52,87,198)" stroke="rgb(52,87,198)" stroke-width="1" opacity="1" d="M 270.5 41 L 273 41.5 L 270.5 42 L 270.5 41 Z " /><path fill="rgb(52,87,198)" stroke="rgb(52,87,198)" stroke-width="1" opacity="1" d="M 209.5 52 L 208.5 54 L 209.5 52 Z " /><path fill="rgb(52,87,198)" stroke="rgb(52,87,198)" stroke-width="1" opacity="1" d="M 302.5 52 L 303.5 54 L 302.5 52 Z " /><path fill="rgb(52,87,198)" stroke="rgb(52,87,198)" stroke-width="1" opacity="1" d="M 206.5 54 L 205.5 56 L 206.5 54 Z " /><path fill="rgb(52,87,198)" stroke="rgb(52,87,198)" stroke-width="1" opacity="1" d="M 203.5 56 L 202.5 58 L 203.5 56 Z " /><path fill="rgb(52,87,198)" stroke="rgb(52,87,198)" stroke-width="1" opacity="1" d="M 311.5 58 L 313.5 61 L 311.5 58 Z " /><path fill="rgb(52,87,198)" stroke="rgb(52,87,198)" stroke-width="1" opacity="1" d="M 199.5 59 L 198.5 61 L 199.5 59 Z " /><path fill="rgb(52,87,198)" stroke="rgb(52,87,198)" stroke-width="1" opacity="1" d="M 316.5 62 L 326.5 73 L 316.5 62 Z " /><path fill="rgb(52,87,198)" stroke="rgb(52,87,198)" stroke-width="1" opacity="1" d="M 194.5 63 L 187.5 71 L 194.5 63 Z " /><path fill="rgb(52,87,198)" stroke="rgb(52,87,198)" stroke-width="1" opacity="1" d="M 184.5 74 L 182.5 77 L 184.5 74 Z " /><path fill="rgb(52,87,198)" stroke="rgb(52,87,198)" stroke-width="1" opacity="1" d="M 328.5 75 L 329.5 77 L 328.5 75 Z " /><path fill="rgb(52,87,198)" stroke="rgb(52,87,198)" stroke-width="1" opacity="1" d="M 181.5 78 L 180.5 80 L 181.5 78 Z " /><path fill="rgb(52,87,198)" stroke="rgb(52,87,198)" stroke-width="1" opacity="1" d="M 331.5 79 L 332.5 81 L 331.5 79 Z " /><path fill="rgb(52,87,198)" stroke="rgb(52,87,198)" stroke-width="1" opacity="1" d="M 333.5 82 L 334.5 84 L 333.5 82 Z " /><path fill="rgb(52,87,198)" stroke="rgb(52,87,198)" stroke-width="1" opacity="1" d="M 177.5 84 L 176.5 86 L 177.5 84 Z " /><path fill="rgb(52,87,198)" stroke="rgb(52,87,198)" stroke-width="1" opacity="1" d="M 346.5 113 L 347 115.5 L 346 115.5 L 346.5 113 Z " /><path fill="rgb(52,87,198)" stroke="rgb(52,87,198)" stroke-width="1" opacity="1" d="M 165.5 114 L 166 116.5 L 165 116.5 L 165.5 114 Z " /><path fill="rgb(52,87,198)" stroke="rgb(52,87,198)" stroke-width="1" opacity="1" d="M 347.5 119 L 348 123.5 L 347 123.5 L 347.5 119 Z " /><path fill="rgb(52,87,198)" stroke="rgb(52,87,198)" stroke-width="1" opacity="1" d="M 164.5 120 L 165 124.5 L 164 124.5 L 164.5 120 Z " /><path fill="rgb(52,87,198)" stroke="rgb(52,87,198)" stroke-width="1" opacity="1" d="M 164.5 140 L 165 143.5 L 164 143.5 L 164.5 140 Z " /><path fill="rgb(52,87,198)" stroke="rgb(52,87,198)" stroke-width="1" opacity="1" d="M 347.5 141 L 348 144.5 L 347 144.5 L 347.5 141 Z " /><path fill="rgb(52,87,198)" stroke="rgb(52,87,198)" stroke-width="1" opacity="1" d="M 165.5 148 L 166 150.5 L 165 150.5 L 165.5 148 Z " /><path fill="rgb(52,87,198)" stroke="rgb(52,87,198)" stroke-width="1" opacity="1" d="M 174.5 175 L 175.5 177 L 174.5 175 Z " /><path fill="rgb(52,87,198)" stroke="rgb(52,87,198)" stroke-width="1" opacity="1" d="M 336.5 177 L 335.5 179 L 336.5 177 Z " /><path fill="rgb(52,87,198)" stroke="rgb(52,87,198)" stroke-width="1" opacity="1" d="M 177.5 180 L 178.5 182 L 177.5 180 Z " /><path fill="rgb(52,87,198)" stroke="rgb(52,87,198)" stroke-width="1" opacity="1" d="M 333.5 182 L 332.5 184 L 333.5 182 Z " /><path fill="rgb(52,87,198)" stroke="rgb(52,87,198)" stroke-width="1" opacity="1" d="M 179.5 183 L 180.5 185 L 179.5 183 Z " /><path fill="rgb(52,87,198)" stroke="rgb(52,87,198)" stroke-width="1" opacity="1" d="M 331.5 185 L 329.5 188 L 331.5 185 Z " /><path fill="rgb(52,87,198)" stroke="rgb(52,87,198)" stroke-width="1" opacity="1" d="M 181.5 186 L 182.5 188 L 181.5 186 Z " /><path fill="rgb(52,87,198)" stroke="rgb(52,87,198)" stroke-width="1" opacity="1" d="M 328.5 189 L 325.5 193 L 328.5 189 Z " /><path fill="rgb(52,87,198)" stroke="rgb(52,87,198)" stroke-width="1" opacity="1" d="M 184.5 190 L 188.5 195 L 184.5 190 Z " /><path fill="rgb(52,87,198)" stroke="rgb(52,87,198)" stroke-width="1" opacity="1" d="M 194.5 200 L 197.5 204 L 194.5 200 Z " /><path fill="rgb(52,87,198)" stroke="rgb(52,87,198)" stroke-width="1" opacity="1" d="M 316.5 201 L 313.5 205 L 316.5 201 Z " /><path fill="rgb(52,87,198)" stroke="rgb(52,87,198)" stroke-width="1" opacity="1" d="M 200.5 205 L 201.5 207 L 200.5 205 Z " /><path fill="rgb(52,87,198)" stroke="rgb(52,87,198)" stroke-width="1" opacity="1" d="M 310.5 206 L 309.5 208 L 310.5 206 Z " /><path fill="rgb(52,87,198)" stroke="rgb(52,87,198)" stroke-width="1" opacity="1" d="M 307.5 208 L 306.5 210 L 307.5 208 Z " /><path fill="rgb(52,87,198)" stroke="rgb(52,87,198)" stroke-width="1" opacity="1" d="M 209.5 211 L 210.5 213 L 209.5 211 Z " /><path fill="rgb(52,87,198)" stroke="rgb(52,87,198)" stroke-width="1" opacity="1" d="M 236.5 222 L 239 222.5 L 236.5 223 L 236.5 222 Z " /><path fill="rgb(52,87,198)" stroke="rgb(52,87,198)" stroke-width="1" opacity="1" d="M 273.5 222 L 276 222.5 L 273.5 223 L 273.5 222 Z " /><path fill="rgb(52,87,198)" stroke="rgb(52,87,198)" stroke-width="1" opacity="1" d="M 242.5 223 L 245 223.5 L 242.5 224 L 242.5 223 Z " /><path fill="rgb(52,87,198)" stroke="rgb(52,87,198)" stroke-width="1" opacity="1" d="M 266.5 223 L 270 223.5 L 266.5 224 L 266.5 223 Z " /><path fill="rgb(52,87,198)" stroke="rgb(52,87,198)" stroke-width="1" opacity="1" d="M 251.5 224 L 260 224.5 L 251.5 225 L 251.5 224 Z " /><path fill="rgb(52,87,198)" stroke="rgb(52,87,198)" stroke-width="1" opacity="1" d="M 254.5 256 L 259 256.5 L 254.5 257 L 254.5 256 Z " /><path fill="rgb(52,87,198)" stroke="rgb(52,87,198)" stroke-width="1" opacity="1" d="M 243.5 257 L 247 257.5 L 243.5 258 L 243.5 257 Z " /><path fill="rgb(52,87,198)" stroke="rgb(52,87,198)" stroke-width="1" opacity="1" d="M 265.5 257 L 269 257.5 L 265.5 258 L 265.5 257 Z " /><path fill="rgb(52,87,198)" stroke="rgb(52,87,198)" stroke-width="1" opacity="1" d="M 238.5 258 L 241 258.5 L 238.5 259 L 238.5 258 Z " /><path fill="rgb(52,87,198)" stroke="rgb(52,87,198)" stroke-width="1" opacity="1" d="M 271.5 258 L 274 258.5 L 271.5 259 L 271.5 258 Z " /><path fill="rgb(52,87,198)" stroke="rgb(52,87,198)" stroke-width="1" opacity="1" d="M 214.5 268 L 213.5 270 L 214.5 268 Z " /><path fill="rgb(52,87,198)" stroke="rgb(52,87,198)" stroke-width="1" opacity="1" d="M 302.5 271 L 303.5 273 L 302.5 271 Z " /><path fill="rgb(52,87,198)" stroke="rgb(52,87,198)" stroke-width="1" opacity="1" d="M 208.5 272 L 207.5 274 L 208.5 272 Z " /><path fill="rgb(52,87,198)" stroke="rgb(52,87,198)" stroke-width="1" opacity="1" d="M 205.5 274 L 203.5 277 L 205.5 274 Z " /><path fill="rgb(52,87,198)" stroke="rgb(52,87,198)" stroke-width="1" opacity="1" d="M 306.5 274 L 308.5 277 L 306.5 274 Z " /><path fill="rgb(52,87,198)" stroke="rgb(52,87,198)" stroke-width="1" opacity="1" d="M 311.5 278 L 323.5 291 L 311.5 278 Z " /><path fill="rgb(52,87,198)" stroke="rgb(52,87,198)" stroke-width="1" opacity="1" d="M 199.5 279 L 189.5 290 L 199.5 279 Z " /><path fill="rgb(52,87,198)" stroke="rgb(52,87,198)" stroke-width="1" opacity="1" d="M 186.5 293 L 184.5 296 L 186.5 293 Z " /><path fill="rgb(52,87,198)" stroke="rgb(52,87,198)" stroke-width="1" opacity="1" d="M 325.5 293 L 328.5 297 L 325.5 293 Z " /><path fill="rgb(52,87,198)" stroke="rgb(52,87,198)" stroke-width="1" opacity="1" d="M 182.5 298 L 181.5 300 L 182.5 298 Z " /><path fill="rgb(52,87,198)" stroke="rgb(52,87,198)" stroke-width="1" opacity="1" d="M 329.5 298 L 330.5 300 L 329.5 298 Z " /><path fill="rgb(52,87,198)" stroke="rgb(52,87,198)" stroke-width="1" opacity="1" d="M 180.5 301 L 179.5 303 L 180.5 301 Z " /><path fill="rgb(52,87,198)" stroke="rgb(52,87,198)" stroke-width="1" opacity="1" d="M 332.5 302 L 333.5 304 L 332.5 302 Z " /><path fill="rgb(52,87,198)" stroke="rgb(52,87,198)" stroke-width="1" opacity="1" d="M 334.5 305 L 335.5 307 L 334.5 305 Z " /><path fill="rgb(52,87,198)" stroke="rgb(52,87,198)" stroke-width="1" opacity="1" d="M 176.5 307 L 175.5 309 L 176.5 307 Z " /><path fill="rgb(52,87,198)" stroke="rgb(52,87,198)" stroke-width="1" opacity="1" d="M 337.5 310 L 338.5 312 L 337.5 310 Z " /><path fill="rgb(52,87,198)" stroke="rgb(52,87,198)" stroke-width="1" opacity="1" d="M 341.5 317 L 345 323.5 L 344 323.5 L 341.5 317 Z " /><path fill="rgb(52,87,198)" stroke="rgb(52,87,198)" stroke-width="1" opacity="1" d="M 360.5 372 L 361 374.5 L 360 374.5 L 360.5 372 Z " /><path fill="rgb(52,87,198)" stroke="rgb(52,87,198)" stroke-width="1" opacity="1" d="M 151.5 373 L 152 375.5 L 151 375.5 L 151.5 373 Z " /><path fill="rgb(52,87,198)" stroke="rgb(52,87,198)" stroke-width="1" opacity="1" d="M 361.5 378 L 362 381.5 L 361 381.5 L 361.5 378 Z " /><path fill="rgb(52,87,198)" stroke="rgb(52,87,198)" stroke-width="1" opacity="1" d="M 150.5 379 L 151 382.5 L 150 382.5 L 150.5 379 Z " /><path fill="rgb(52,87,198)" stroke="rgb(52,87,198)" stroke-width="1" opacity="1" d="M 362.5 386 L 363 390.5 L 362 390.5 L 362.5 386 Z " /><path fill="rgb(52,87,198)" stroke="rgb(52,87,198)" stroke-width="1" opacity="1" d="M 149.5 387 L 150 391.5 L 149 391.5 L 149.5 387 Z " /><path fill="rgb(52,87,198)" stroke="rgb(52,87,198)" stroke-width="1" opacity="1" d="M 363.5 397 L 364 424.5 L 363 424.5 L 363.5 397 Z " /><path fill="rgb(52,87,198)" stroke="rgb(52,87,198)" stroke-width="1" opacity="1" d="M 148.5 400 L 149 421.5 L 148 421.5 L 148.5 400 Z " /><path fill="rgb(52,87,198)" stroke="rgb(52,87,198)" stroke-width="1" opacity="1" d="M 149.5 429 L 150 434.5 L 149 434.5 L 149.5 429 Z " /><path fill="rgb(52,87,198)" stroke="rgb(52,87,198)" stroke-width="1" opacity="1" d="M 362.5 431 L 363 435.5 L 362 435.5 L 362.5 431 Z " /><path fill="rgb(52,87,198)" stroke="rgb(52,87,198)" stroke-width="1" opacity="1" d="M 150.5 438 L 151 441.5 L 150 441.5 L 150.5 438 Z " /><path fill="rgb(52,87,198)" stroke="rgb(52,87,198)" stroke-width="1" opacity="1" d="M 361.5 439 L 362 442.5 L 361 442.5 L 361.5 439 Z " /><path fill="rgb(52,87,198)" stroke="rgb(52,87,198)" stroke-width="1" opacity="1" d="M 151.5 445 L 152 447.5 L 151 447.5 L 151.5 445 Z " /><path fill="rgb(52,87,198)" stroke="rgb(52,87,198)" stroke-width="1" opacity="1" d="M 360.5 446 L 361 448.5 L 360 448.5 L 360.5 446 Z " /><path fill="rgb(52,87,198)" stroke="rgb(52,87,198)" stroke-width="1" opacity="1" d="M 359.5 451 L 360 453.5 L 359 453.5 L 359.5 451 Z " /><path fill="rgb(52,87,198)" stroke="rgb(52,87,198)" stroke-width="1" opacity="1" d="M 357.5 460 L 358 462.5 L 357 462.5 L 357.5 460 Z " /><path fill="rgb(0,0,0)" stroke="rgb(0,0,0)" stroke-width="1" opacity="0" d="M 0 0 L 512 0 L 512 512 L 0 512 L 0 0 Z M 246 8 L 245 9 L 232 10 L 209 17 Q 188 25 174 39 Q 141 66 133 117 L 125 117 L 124 116 L 104 117 L 85 122 Q 68 128 56 139 Q 29 160 21 199 L 54 199 Q 58 183 67 173 L 84 158 L 103 150 L 114 148 L 124 148 L 133 150 Q 139 188 161 213 L 183 233 L 180 244 L 172 257 Q 157 276 129 282 L 110 282 L 101 280 Q 85 275 74 265 Q 60 253 54 233 L 54 231 L 22 231 L 24 245 L 29 258 L 45 282 Q 54 292 67 300 L 61 304 Q 36 324 23 355 L 17 370 L 12 388 L 10 405 L 9 406 L 9 415 L 8 416 L 8 442 L 9 443 L 10 460 L 15 482 L 23 503 L 24 504 L 489 504 L 499 474 L 499 472 L 388 472 L 393 451 L 394 437 L 395 436 L 395 424 L 396 423 L 396 398 L 395 397 L 395 386 L 394 385 L 393 371 L 385 338 L 377 318 L 379 316 L 390 314 L 398 314 L 409 316 Q 422 319 431 327 Q 451 343 461 370 L 469 396 L 471 407 L 471 415 L 472 416 L 472 440 L 504 440 L 504 415 L 503 414 L 502 398 L 493 364 L 479 336 L 459 310 L 446 300 L 459 290 Q 485 268 492 227 L 492 204 L 486 180 Q 478 160 465 147 Q 451 132 431 123 L 414 118 L 401 117 L 400 116 L 379 117 L 376 99 L 369 80 Q 361 63 350 51 Q 332 29 304 17 L 293 13 L 275 9 Q 269 11 268 8 L 246 8 Z " /><path fill="rgb(0,0,0)" stroke="rgb(0,0,0)" stroke-width="1" opacity="0" d="M 388.5 148 L 406.5 149 L 419.5 153 Q 435.8 159.7 446 172.5 Q 454.6 182.9 459 197.5 L 461 207.5 L 461 222.5 L 459 232.5 L 452 249.5 Q 445.1 261.1 434.5 269 L 412.5 280 L 403.5 282 L 384.5 282 Q 355.7 276.8 341 257.5 Q 331.4 247.5 329 232 L 335.5 228 L 352 211.5 Q 373 187.7 379 150 L 388.5 148 Z " /><path fill="rgb(0,0,0)" stroke="rgb(0,0,0)" stroke-width="1" opacity="0" d="M 115.5 314 L 129.5 315 L 135 317.5 Q 125.2 339.2 120 365.5 L 120 370.5 L 118 377.5 L 118 385.5 L 117 386.5 L 116 420.5 L 117 421.5 L 118 443.5 L 124 472 L 46.5 472 L 46 470.5 L 41 450.5 L 40 416.5 L 41 415.5 L 41 407.5 L 42 406.5 L 43 395.5 L 51 369.5 Q 60.8 345.8 78.5 330 L 95.5 319 L 115.5 314 Z " /><path fill="rgb(67,112,254)" stroke="rgb(67,112,254)" stroke-width="1" opacity="1" d="M 309.5 57 L 310.5 59 L 309.5 57 Z " /><path fill="rgb(67,112,254)" stroke="rgb(67,112,254)" stroke-width="1" opacity="1" d="M 197.5 61 L 195.5 64 L 197.5 61 Z " /><path fill="rgb(67,112,254)" stroke="rgb(67,112,254)" stroke-width="1" opacity="1" d="M 186.5 72 L 185.5 74 L 186.5 72 Z " /><path fill="rgb(67,112,254)" stroke="rgb(67,112,254)" stroke-width="1" opacity="1" d="M 326.5 73 L 327.5 75 L 326.5 73 Z " /><path fill="rgb(67,112,254)" stroke="rgb(67,112,254)" stroke-width="1" opacity="1" d="M 183.5 188 L 184.5 190 L 183.5 188 Z " /><path fill="rgb(67,112,254)" stroke="rgb(67,112,254)" stroke-width="1" opacity="1" d="M 324.5 193 L 317.5 201 L 324.5 193 Z " /><path fill="rgb(67,112,254)" stroke="rgb(67,112,254)" stroke-width="1" opacity="1" d="M 189.5 195 L 193.5 200 L 189.5 195 Z " /><path fill="rgb(67,112,254)" stroke="rgb(67,112,254)" stroke-width="1" opacity="1" d="M 198.5 203 L 199.5 205 L 198.5 203 Z " /><path fill="rgb(67,112,254)" stroke="rgb(67,112,254)" stroke-width="1" opacity="1" d="M 312.5 204 L 311.5 206 L 312.5 204 Z " /><path fill="rgb(67,112,254)" stroke="rgb(67,112,254)" stroke-width="1" opacity="1" d="M 304.5 273 L 305.5 275 L 304.5 273 Z " /><path fill="rgb(67,112,254)" stroke="rgb(67,112,254)" stroke-width="1" opacity="1" d="M 202.5 277 L 200.5 280 L 202.5 277 Z " /><path fill="rgb(67,112,254)" stroke="rgb(67,112,254)" stroke-width="1" opacity="1" d="M 309.5 277 L 310.5 279 L 309.5 277 Z " /><path fill="rgb(67,112,254)" stroke="rgb(67,112,254)" stroke-width="1" opacity="1" d="M 189.5 290 L 187.5 293 L 189.5 290 Z " /><path fill="rgb(67,112,254)" stroke="rgb(67,112,254)" stroke-width="1" opacity="1" d="M 323.5 291 L 324.5 293 L 323.5 291 Z " /><path fill="rgb(67,112,254)" stroke="rgb(67,112,254)" stroke-width="1" opacity="1" d="M 184.5 296 L 183.5 298 L 184.5 296 Z " /><path fill="rgb(67,112,254)" stroke="rgb(67,112,254)" stroke-width="1" opacity="1" d="M 179.5 303 L 178.5 305 L 179.5 303 Z " /><path fill="rgb(67,112,255)" stroke="rgb(67,112,255)" stroke-width="1" opacity="1" d="M 253.5 40 L 274.5 42 L 290.5 47 Q 312.1 55.9 326 72.5 Q 338.8 87.2 345 108.5 L 348 125.5 L 348 139.5 L 344 159.5 L 335 179.5 Q 326.3 193.8 313.5 204 Q 299.7 215.2 280.5 221 L 264.5 224 L 247.5 224 L 231.5 221 L 208.5 211 Q 195 202.5 185 190.5 Q 172.9 176.1 167 155.5 L 165 146.5 L 165 138.5 L 164 137.5 L 164 126.5 L 165 125.5 L 166 112.5 L 173 92.5 Q 181.4 75.9 194.5 64 Q 206 53.5 221.5 47 L 237.5 42 L 252.5 41 L 253.5 40 Z " /><path fill="rgb(67,112,255)" stroke="rgb(67,112,255)" stroke-width="1" opacity="1" d="M 248.5 257 L 263.5 257 L 286.5 263 Q 308.3 273.3 323 290.5 Q 345.3 316.2 356 353.5 L 360 370.5 L 362 391.5 L 363 392.5 L 363 428.5 L 362 429.5 L 360 450.5 L 355 470.5 L 353.5 472 L 158.5 472 L 158 470.5 L 153 454.5 L 151 437.5 L 150 436.5 L 150 428.5 L 149 427.5 L 149 394.5 L 150 393.5 L 150 384.5 L 151 383.5 L 153 366.5 L 163 333.5 Q 176 301.5 199.5 280 Q 209.9 270.4 223.5 264 L 237.5 259 L 248.5 257 Z " /><path fill="rgb(0,0,0)" stroke="rgb(0,0,0)" stroke-width="1" opacity="0.9921568627450981" d="M 245.5 8 L 267.5 8 Q 269 10.5 274.5 9 L 292.5 13 L 303.5 17 Q 331.6 28.9 350 50.5 Q 361.3 63.2 369 79.5 L 376 98.5 L 379 117 L 399.5 116 L 400.5 117 L 413.5 118 L 430.5 123 Q 450.9 131.6 465 146.5 Q 478.2 160.3 486 179.5 L 492 203.5 L 492 226.5 Q 485.1 268.1 458.5 290 L 446 299.5 L 459 310 L 479 335.5 L 493 363.5 L 502 397.5 L 503 413.5 L 504 414.5 L 504 440 L 472 440 L 472 415.5 L 471 414.5 L 471 406.5 L 469 395.5 L 461 369.5 Q 450.7 343.3 430.5 327 Q 421.5 319.5 408.5 316 L 397.5 314 L 389.5 314 L 378.5 316 L 377 317.5 L 385 337.5 L 393 370.5 L 394 384.5 L 395 385.5 L 395 396.5 L 396 397.5 L 396 422.5 L 395 423.5 L 395 435.5 L 394 436.5 L 393 450.5 L 388 472 L 498.5 472 L 499 473.5 L 489 504 L 23.5 504 L 23 502.5 L 15 481.5 L 10 459.5 L 9 442.5 L 8 441.5 L 8 415.5 L 9 414.5 L 9 405.5 L 10 404.5 L 12 387.5 L 17 369.5 L 23 354.5 Q 36.4 323.9 60.5 304 L 67 299.5 Q 54.2 292.3 45 281.5 L 29 257.5 L 24 244.5 L 22 231 L 53.5 231 L 54 232.5 Q 59.7 252.8 73.5 265 Q 84.5 275 100.5 280 L 109.5 282 L 128.5 282 Q 157.4 276.4 172 256.5 L 180 243.5 L 183 232.5 L 161 212.5 Q 139.3 188.4 133 150 L 123.5 148 L 113.5 148 L 102.5 150 L 83.5 158 L 67 172.5 Q 57.5 183.3 54 199 L 21 198.5 Q 29.2 159.7 55.5 139 Q 67.9 128.4 84.5 122 L 103.5 117 L 123.5 116 L 124.5 117 L 133 117 Q 140.9 66.1 173.5 39 Q 188.4 25.4 208.5 17 L 231.5 10 L 244.5 9 L 245.5 8 Z M 246 40 L 235 42 L 220 47 Q 205 53 195 63 Q 171 83 164 121 L 164 144 L 167 159 Q 173 177 184 191 Q 195 204 211 213 L 233 222 L 243 224 L 251 224 L 252 225 L 270 224 L 280 222 Q 299 216 314 205 Q 341 185 348 145 L 348 120 L 344 103 Q 338 85 327 73 Q 312 54 288 45 L 267 40 L 246 40 Z M 389 148 L 379 150 Q 373 188 352 212 L 336 228 L 329 232 Q 331 247 341 258 Q 356 277 385 282 L 404 282 L 413 280 L 435 269 Q 445 261 452 250 L 459 233 L 461 223 L 461 208 L 459 198 Q 455 183 446 173 Q 436 160 420 153 L 407 149 L 389 148 Z M 255 256 L 254 257 L 239 258 L 227 262 Q 211 269 200 279 Q 177 299 164 330 L 153 364 L 150 380 L 150 387 L 149 388 L 149 400 L 148 401 L 149 435 L 153 458 L 157 470 L 158 472 L 355 472 L 361 449 L 362 437 L 363 436 L 363 426 L 364 425 L 363 387 L 357 355 Q 351 335 343 319 L 324 291 Q 308 271 284 261 L 269 257 L 255 256 Z M 116 314 L 96 319 L 79 330 Q 61 346 51 370 L 43 396 L 42 407 L 41 408 L 41 416 L 40 417 L 41 451 L 46 471 L 47 472 L 124 472 L 118 444 L 117 422 L 116 421 L 117 387 L 118 386 L 118 378 L 120 371 L 120 366 Q 125 339 135 318 L 130 315 L 116 314 Z " /></svg>